<?xml version="1.0" standalone="no"?>
<!DOCTYPE svg PUBLIC "-//W3C//DTD SVG 1.1//EN" "http://www.w3.org/Graphics/SVG/1.1/DTD/svg11.dtd" >
<svg xmlns="http://www.w3.org/2000/svg" xmlns:xlink="http://www.w3.org/1999/xlink" version="1.1">
<metadata>
Created by FontForge 20170731 at Mon May  7 09:13:56 2007
 By Aleksey,,,
Syntax is a Trademark of Heidelberger Druckmaschinen AG, exclusively licensed through Linotype Library GmbH. The software for producing the Typefaces licensed to you is copyrighted \(c\) 2000, Linotype Library GmbH. All rights reserved.
</metadata>
<defs>
<font id="LinotypeSyntax-Bold" horiz-adv-x="580" >
  <font-face 
    font-family="LinotypeSyntax"
    font-weight="700"
    font-stretch="normal"
    units-per-em="1000"
    panose-1="0 0 0 0 0 0 0 0 0 0"
    ascent="800"
    descent="-200"
    x-height="511"
    cap-height="694"
    bbox="-194 -257 1191 971"
    underline-thickness="50"
    underline-position="-200"
    unicode-range="U+0020-FB02"
  />
<missing-glyph horiz-adv-x="1000" 
 />
    <glyph glyph-name=".notdef" horiz-adv-x="1000" 
 />
    <glyph glyph-name=".null" horiz-adv-x="0" 
 />
    <glyph glyph-name="nonmarkingreturn" horiz-adv-x="333" 
 />
    <glyph glyph-name="space" unicode=" " horiz-adv-x="290" 
 />
    <glyph glyph-name="exclam" unicode="!" horiz-adv-x="353" 
d="M248 694l-3 -309l-12 -168h-114l-10 164l1 313h138zM247 0h-146v136h146v-136z" />
    <glyph glyph-name="quotedbl" unicode="&#x22;" horiz-adv-x="479" 
d="M395 694l-2 -272h-110l2 272h110zM206 694l-2 -272h-110l2 272h110z" />
    <glyph glyph-name="numbersign" unicode="#" 
d="M544 410h-92l-17 -118h79v-86h-92l-29 -206h-98l29 206h-103l-29 -206h-98l29 206h-89v86h101l17 118h-88v86h100l28 198h99l-28 -198h102l28 198h99l-28 -198h80v-86zM353 410h-103l-17 -118h103z" />
    <glyph glyph-name="dollar" unicode="$" 
d="M537 652l-54 -94q-38 22 -113 33l-40 -187q37 -15 56.5 -23.5t50.5 -27.5t47 -38t28.5 -50.5t12.5 -69.5q0 -96 -72 -151t-191 -55h-18l-19 -87l-57 6l18 87q-91 13 -151 45l51 94q59 -27 122 -34l42 201q-41 16 -59 23.5t-51.5 26.5t-49.5 37.5t-29.5 49.5t-13.5 68
q0 86 74 141t182 55q20 0 31 -1l16 73l57 -5l-16 -73q86 -13 146 -44zM312 595q-50 3 -82 -17.5t-32 -59.5q0 -55 79 -92zM383 185q0 57 -79 93l-38 -180q54 2 85.5 24t31.5 63z" />
    <glyph glyph-name="percent" unicode="%" horiz-adv-x="883" 
d="M825 206q0 -41 -8 -76.5t-25 -67.5t-49 -51t-76 -19q-84 0 -121.5 61t-37.5 153q0 55 14 101.5t52 80.5t95 34q58 0 94.5 -33.5t49 -79t12.5 -103.5zM703 698l-455 -726l-64 24l456 728zM375 486q0 -41 -8 -76.5t-25 -67.5t-49 -51t-76 -19q-84 0 -121.5 61t-37.5 153
q0 55 14 101.5t52 80.5t95 34q58 0 94.5 -33.5t49 -79t12.5 -103.5zM735 206q0 78 -15.5 115t-51.5 37q-38 0 -53 -36.5t-15 -115.5q0 -77 15.5 -113t52.5 -36t52 35.5t15 113.5zM285 486q0 78 -15.5 115t-51.5 37q-38 0 -53 -36.5t-15 -115.5q0 -77 15.5 -113t52.5 -36
t52 35.5t15 113.5z" />
    <glyph glyph-name="ampersand" unicode="&#x26;" horiz-adv-x="726" 
d="M707 50l-109 -76l-76 85q-83 -70 -203 -70q-62 0 -109.5 14t-75 35t-45 50.5t-23.5 56t-6 54.5q0 112 153 211q-39 39 -58.5 72t-19.5 72q0 76 58 113.5t145 37.5q73 0 118.5 -37.5t45.5 -99.5q0 -49 -31 -86.5t-84 -73.5l130 -145q12 50 12 129h117q5 -134 -41 -227z
M382 566q0 23 -14.5 37t-43.5 14q-24 0 -40 -16t-16 -37q0 -13 7.5 -27t13.5 -20.5l30 -32.5q36 25 49.5 42t13.5 40zM452 138l-175 196q-38 -26 -56 -52t-18 -64q0 -58 35 -92t92 -34q73 0 122 46z" />
    <glyph glyph-name="quotesingle" unicode="'" horiz-adv-x="290" 
d="M206 694l-2 -272h-110l2 272h110z" />
    <glyph glyph-name="parenleft" unicode="(" horiz-adv-x="332" 
d="M327 702q-167 -169 -170 -395q-3 -223 161 -390l-91 -60q-86 71 -140.5 195.5t-54.5 253.5q0 128 58 254.5t147 199.5z" />
    <glyph glyph-name="parenright" unicode=")" horiz-adv-x="332" 
d="M279 311q-1 -128 -59 -254.5t-146 -199.5l-90 58q167 169 170 395q3 223 -161 390l91 60q87 -71 141.5 -196t53.5 -253z" />
    <glyph glyph-name="asterisk" unicode="*" horiz-adv-x="430" 
d="M411 470l-136 13l76 -105l-89 -49l-48 123l-53 -124l-89 46l85 110l-138 -17v98l138 -14l-77 106l89 49l48 -124l54 125l88 -46l-85 -110l137 17v-98z" />
    <glyph glyph-name="plus" unicode="+" 
d="M555 203h-201v-203h-128v203h-201v124h201v203h128v-203h201v-124z" />
    <glyph glyph-name="comma" unicode="," horiz-adv-x="290" 
d="M221 140l-59 -270h-84l2 270h141z" />
    <glyph glyph-name="hyphen" unicode="-" horiz-adv-x="428" 
d="M362 202h-296v109h296v-109z" />
    <glyph glyph-name="period" unicode="." horiz-adv-x="290" 
d="M217 0h-145v140h145v-140z" />
    <glyph glyph-name="slash" unicode="/" horiz-adv-x="385" 
d="M385 698l-293 -728l-92 23l293 728z" />
    <glyph glyph-name="zero" unicode="0" 
d="M538 344q0 -68 -12.5 -127.5t-39.5 -112.5t-77 -84t-118 -31t-118.5 31t-77.5 84t-39.5 112.5t-12.5 127.5t12.5 128t40 113.5t78 85t118.5 31.5t118 -31.5t77 -85t39 -113.5t12 -128zM397 344q0 131 -24 193t-81 62q-60 0 -83 -61t-23 -194q0 -130 24.5 -191t81.5 -61
t81 61t24 191z" />
    <glyph glyph-name="one" unicode="1" 
d="M444 674l-5 -674h-135l4 469q0 22 2 46.5t4 38.5l2 13q-27 -40 -59 -66l-103 -85l-89 78l268 214z" />
    <glyph glyph-name="two" unicode="2" 
d="M514 493q0 -53 -26 -106t-54 -85.5t-79 -83.5q-63 -63 -151 -118q47 7 86 7h223v-107h-434l-31 85q133 110 207 188.5t95 120t21 80.5q0 63 -27.5 93t-85.5 30q-69 0 -142 -45l-51 84q104 66 215 66q122 0 178 -53t56 -156z" />
    <glyph glyph-name="three" unicode="3" 
d="M517 189q0 -32 -14 -65t-44 -64.5t-86 -51t-130 -19.5q-123 0 -195 54l52 85q62 -40 142 -40q53 0 93.5 28t40.5 80q0 53 -35 75.5t-119 22.5h-75v103h72q89 0 122.5 34t33.5 78q0 43 -35 68.5t-81 25.5q-83 0 -151 -42l-50 81q106 60 222 60q106 0 170.5 -41t64.5 -134
q0 -68 -41.5 -112.5t-104.5 -63.5q148 -28 148 -162z" />
    <glyph glyph-name="four" unicode="4" 
d="M581 166h-125l-1 -166h-132l1 166h-263l-41 94l320 443l121 -21l-4 -416h124v-100zM343 569q-25 -56 -59 -107l-93 -139q-9 -13 -22 -28.5t-22 -24.5l-9 -10q32 6 69 6h119l6 169z" />
    <glyph glyph-name="five" unicode="5" 
d="M525 249q0 -114 -83 -187t-223 -73q-106 0 -174 34l43 90q51 -25 129 -25q69 0 116 40.5t47 110.5q0 55 -32.5 84t-72.5 29q-37 0 -68 -16t-45 -45l-102 21l75 382h368v-106h-266l-21 -109l-14 -52q55 29 111 29q96 0 154 -54t58 -153z" />
    <glyph glyph-name="six" unicode="6" 
d="M551 209q0 -32 -13 -67t-40.5 -71t-81 -59t-125.5 -23q-117 0 -186.5 81.5t-69.5 229.5q0 57 15 113t48.5 109t82.5 93.5t122.5 65t162.5 24.5q40 0 82 -4l-12 -103q-37 4 -72 4q-73 0 -129 -22.5t-88.5 -61.5t-50 -83t-22.5 -94q26 37 71.5 57.5t98.5 20.5q95 0 151 -57
t56 -153zM412 207q0 50 -26.5 80.5t-79.5 30.5q-81 0 -128 -97q0 -1 2.5 -12.5t4 -17t5 -18t8 -20t11.5 -18.5t16 -17.5t20 -13.5t26 -10t32 -3q49 0 79 35t30 81z" />
    <glyph glyph-name="seven" unicode="7" 
d="M562 614l-340 -628l-122 37l256 486q12 23 25.5 44t20.5 31l7 9q-44 -4 -95 -4h-234v105h450z" />
    <glyph glyph-name="eight" unicode="8" 
d="M534 186q0 -89 -73.5 -143t-175.5 -54q-100 0 -169.5 43.5t-69.5 129.5q0 70 31.5 107t98.5 70q-56 26 -87 68t-31 119q0 83 72 131t170 48q233 0 233 -168q0 -100 -131 -169q65 -26 98.5 -67.5t33.5 -114.5zM410 530q0 42 -30.5 62.5t-73.5 20.5q-51 0 -80.5 -25.5
t-29.5 -65.5q0 -36 27.5 -61t79.5 -47q23 12 36.5 21t32.5 24t28.5 33t9.5 38zM394 183q0 40 -31 64.5t-91 46.5q-30 -15 -48 -27t-35.5 -36.5t-17.5 -54.5q0 -45 32.5 -68.5t77.5 -23.5q53 0 83 29t30 70z" />
    <glyph glyph-name="nine" unicode="9" 
d="M546 394q0 -57 -15 -113t-48.5 -109t-82.5 -93.5t-122.5 -65t-162.5 -24.5q-40 0 -82 4l13 103q37 -4 71 -4q75 0 131.5 23.5t89 64t49.5 84.5t22 94q-26 -34 -72.5 -55.5t-97.5 -21.5q-94 0 -149 56t-55 151q0 25 7 51.5t25.5 57t46.5 54t74 39t104 15.5
q119 0 186.5 -81t67.5 -230zM403 476q0 1 -3 13.5t-4.5 19t-7 20t-11 22t-15 20t-21 18t-27.5 11t-35 4.5q-47 0 -76.5 -34t-29.5 -79q0 -49 26.5 -79.5t76.5 -30.5q42 0 76 29t51 66z" />
    <glyph glyph-name="colon" unicode=":" horiz-adv-x="290" 
d="M217 371h-145v140h145v-140zM214 0h-145v140h145v-140z" />
    <glyph glyph-name="semicolon" unicode=";" horiz-adv-x="290" 
d="M220 371h-145v140h145v-140zM213 140l-59 -269h-84l2 269h141z" />
    <glyph glyph-name="less" unicode="&#x3c;" 
d="M550 -4l-530 206v128l530 205v-136l-373 -133l373 -134v-136z" />
    <glyph glyph-name="equal" unicode="=" 
d="M555 318h-530v124h530v-124zM555 88h-530v124h530v-124z" />
    <glyph glyph-name="greater" unicode="&#x3e;" 
d="M555 202l-530 -206v136l374 134l-374 133v136l530 -205v-128z" />
    <glyph glyph-name="question" unicode="?" horiz-adv-x="526" 
d="M484 530q0 -37 -14.5 -68t-30.5 -47t-45.5 -40.5t-41.5 -36.5q-44 -44 -44 -99v-36h-138v35q0 49 13 79t44 61q8 8 45 37.5t55 53.5t18 52q0 41 -28.5 60t-63.5 19q-71 0 -135 -50l-58 81q30 24 92 49t121 25q211 0 211 -175zM311 0h-148v140h148v-140z" />
    <glyph glyph-name="at" unicode="@" horiz-adv-x="1102" 
d="M1020 325q0 -60 -18 -120t-53 -113t-94.5 -86t-133.5 -33q-45 0 -73 24.5t-30 60.5q-27 -31 -65 -50t-74 -19q-61 0 -101 36t-40 103q0 84 54.5 124t215.5 66l1 49q1 30 -16.5 44t-38.5 14q-58 0 -138 -68l-55 69q74 60 125.5 78t103.5 18q63 0 105.5 -34t41.5 -110
l-2 -258q0 -26 14.5 -37t29.5 -11q65 0 103.5 76t38.5 172q0 152 -95 230.5t-255 78.5q-174 0 -283 -104.5t-109 -255.5q0 -185 92 -292.5t263 -107.5q42 0 95.5 14t93.5 35l31 -65q-122 -61 -234 -61q-203 0 -320.5 127t-117.5 345q0 91 38 172.5t104 140.5t159 93.5
t198 34.5q198 0 318.5 -101t120.5 -279zM606 236q-83 -13 -112.5 -31t-29.5 -65q0 -27 17.5 -43t46.5 -16q42 0 76 49z" />
    <glyph glyph-name="A" unicode="A" horiz-adv-x="670" 
d="M652 19l-136 -31l-68 198h-250l-74 -197l-122 28l267 677h135zM412 292l-44 125q-13 38 -23.5 79.5t-14.5 63.5l-3 23q-16 -87 -44 -166l-44 -125h173z" />
    <glyph glyph-name="B" unicode="B" horiz-adv-x="668" 
d="M595 193q0 -92 -70.5 -145t-222.5 -54q-91 0 -203 6l5 694q7 0 99.5 5t122.5 5q29 0 44 -0.5t47.5 -3.5t52 -9.5t45.5 -20t40.5 -32t25 -48.5t10.5 -68q0 -67 -38 -110t-97 -55q69 -6 104 -54.5t35 -109.5zM450 503q0 53 -31.5 75t-90.5 22q-16 0 -88 -3l-1 -191h82
q129 0 129 97zM452 202q0 60 -35 79.5t-105 19.5h-73l-1 -199q56 -2 72 -2q142 0 142 102z" />
    <glyph glyph-name="C" unicode="C" horiz-adv-x="648" 
d="M618 659l-53 -87q-72 30 -141 30q-88 0 -153.5 -74t-65.5 -178q0 -110 55.5 -182.5t159.5 -72.5q68 0 138 37l53 -90q-40 -21 -95.5 -37t-95.5 -16q-164 0 -264.5 88.5t-100.5 266.5q0 99 51.5 183t136.5 131t182 47q59 0 101.5 -10.5t91.5 -35.5z" />
    <glyph glyph-name="D" unicode="D" horiz-adv-x="761" 
d="M706 361q0 -69 -21.5 -128.5t-58.5 -102.5t-85 -74.5t-102 -46.5t-108 -15l-232 6l5 694q155 10 235 10q76 0 138 -17t115.5 -54.5t83.5 -106.5t30 -165zM556 358q0 110 -55.5 176.5t-157.5 66.5q-37 0 -103 -3l-2 -498q54 -2 94 -2q95 0 159.5 75.5t64.5 184.5z" />
    <glyph glyph-name="E" unicode="E" horiz-adv-x="584" 
d="M503 0h-404l5 694h399v-107h-262l-1 -179h259v-107h-260l-1 -194h265v-107z" />
    <glyph glyph-name="F" unicode="F" horiz-adv-x="567" 
d="M503 587h-262l-2 -190h260v-108h-260l-2 -289h-138l5 694h399v-107z" />
    <glyph glyph-name="G" unicode="G" horiz-adv-x="734" 
d="M650 337l-3 -302q-45 -16 -116 -31t-111 -15q-164 0 -264.5 88.5t-100.5 266.5q0 99 51.5 183t136.5 131t182 47q59 0 101.5 -10.5t91.5 -35.5l-53 -88q-72 30 -141 30q-88 0 -153.5 -73.5t-65.5 -177.5q0 -110 55.5 -182.5t159.5 -72.5q51 0 92 13l2 229h136z" />
    <glyph glyph-name="H" unicode="H" horiz-adv-x="756" 
d="M657 694l-5 -694h-138l2 300h-277l-2 -300h-138l5 694h138l-2 -285h277l2 285h138z" />
    <glyph glyph-name="I" unicode="I" horiz-adv-x="341" 
d="M242 694l-5 -694h-138l5 694h138z" />
    <glyph glyph-name="J" unicode="J" horiz-adv-x="395" 
d="M310 694l-4 -487q-1 -96 -68.5 -157t-173.5 -61q-30 0 -65 5l8 103q24 -1 38 -1q58 0 90 31t33 110l4 457h138z" />
    <glyph glyph-name="K" unicode="K" horiz-adv-x="735" 
d="M679 640l-249 -275l248 -309l-126 -71l-289 372l309 349zM242 694l-5 -694h-138l5 694h138z" />
    <glyph glyph-name="L" unicode="L" horiz-adv-x="527" 
d="M483 0h-384l5 694h138l-4 -585h245v-109z" />
    <glyph glyph-name="M" unicode="M" horiz-adv-x="1013" 
d="M968 9l-133 -19l-82 454l-18 142q-16 -87 -33 -143l-131 -443h-160l-112 440q-8 32 -15 68.5t-10 57.5l-3 20q-8 -81 -22 -147l-95 -449l-123 20l157 684h169l116 -438q9 -34 15.5 -69.5t8.5 -53.5l2 -18q10 68 32 140l133 439h168z" />
    <glyph glyph-name="N" unicode="N" horiz-adv-x="790" 
d="M691 694l-6 -675l-158 -37l-249 437q-19 32 -34.5 66t-21.5 52l-7 18q9 -88 9 -143l-1 -412h-124l5 671l159 36l247 -435q18 -32 34 -66t23 -52l7 -18q-8 88 -8 143l1 415h124z" />
    <glyph glyph-name="O" unicode="O" horiz-adv-x="818" 
d="M763 348q0 -151 -102.5 -255t-250.5 -104q-165 0 -260 92t-95 267q0 151 101 254t254 103q166 0 259.5 -96.5t93.5 -260.5zM613 348q0 118 -51.5 186t-151.5 68q-90 0 -148 -68.5t-58 -185.5q0 -256 206 -256q97 0 150 75t53 181z" />
    <glyph glyph-name="P" unicode="P" horiz-adv-x="637" 
d="M598 490q0 -50 -16.5 -89t-43 -63t-64 -39.5t-75.5 -21.5t-80 -6h-80l-2 -271h-138l5 694q155 10 247 10q114 1 180.5 -50t66.5 -164zM454 487q0 47 -28.5 79t-84.5 32q-22 0 -100 -3l-2 -218h81q63 0 98.5 29.5t35.5 80.5z" />
    <glyph glyph-name="Q" unicode="Q" horiz-adv-x="818" 
d="M767 -29l-94 -90l-190 115q-30 -7 -73 -7q-165 0 -260 91.5t-95 266.5q0 151 101 254.5t254 103.5q166 0 259.5 -97t93.5 -261q0 -88 -37 -163.5t-102 -124.5zM613 347q0 118 -51.5 186.5t-151.5 68.5q-90 0 -148 -69t-58 -186q0 -255 206 -255q97 0 150 75t53 180z" />
    <glyph glyph-name="R" unicode="R" horiz-adv-x="664" 
d="M622 40l-128 -57l-217 329l34 62q1 0 11 1.5t18.5 2.5t22.5 5t25.5 8.5t23.5 13.5t20.5 20t14 27.5t5.5 35.5q0 111 -131 111q-11 0 -40 -1.5t-40 -1.5l-4 -596h-138l5 694q161 10 225 10q58 0 103.5 -9t83 -30.5t57.5 -61.5t20 -97q0 -78 -46.5 -129.5t-115.5 -68.5
q21 -17 41 -47z" />
    <glyph glyph-name="S" unicode="S" horiz-adv-x="584" 
d="M533 655l-54 -94q-27 16 -72.5 26.5t-79.5 10.5q-121 0 -121 -80q0 -32 23.5 -55.5t58.5 -36.5t76 -31.5t75.5 -39.5t58 -61.5t23.5 -96.5q0 -97 -68 -152.5t-185 -55.5q-120 0 -217 51l51 94q79 -36 152 -36q123 0 123 89q0 36 -32.5 60.5t-78.5 41.5t-92 39t-78.5 67
t-32.5 111q0 87 70 143t176 56q128 0 224 -50z" />
    <glyph glyph-name="T" unicode="T" horiz-adv-x="552" 
d="M528 587h-181l-4 -587h-138l4 587h-181v107h500v-107z" />
    <glyph glyph-name="U" unicode="U" horiz-adv-x="752" 
d="M661 694l-2 -446q-1 -124 -81 -191.5t-208 -67.5q-127 0 -201.5 68t-73.5 198q2 294 3 439h137l-3 -446q-1 -79 41.5 -118t110.5 -39q73 0 112.5 45.5t39.5 118.5l2 439h123z" />
    <glyph glyph-name="V" unicode="V" horiz-adv-x="670" 
d="M659 672l-256 -672h-146l-242 672l135 36l147 -431q10 -28 19.5 -69.5t14.5 -69.5l5 -27q14 88 43 167l159 430z" />
    <glyph glyph-name="W" unicode="W" horiz-adv-x="1111" 
d="M1078 678l-213 -678h-157l-130 436q-32 110 -26 144q-6 -88 -24 -147l-132 -433h-157l-206 677l138 31l123 -432q9 -32 17.5 -72.5t12.5 -65.5l3 -24q6 76 29 153l129 427h158l122 -418q11 -36 18.5 -76.5t9.5 -63.5l2 -22q12 95 33 165l128 429z" />
    <glyph glyph-name="X" unicode="X" horiz-adv-x="692" 
d="M645 657l-213 -298l204 -314l-126 -60l-128 203q-8 12 -19 34.5t-18 39.5l-7 16q-31 -64 -46 -85l-143 -208l-117 51l224 317l-193 295l127 59l121 -190l43 -81q31 61 45 82l129 190z" />
    <glyph glyph-name="Y" unicode="Y" horiz-adv-x="593" 
d="M594 651l-232 -338l-2 -313h-138l2 307l-222 341l123 61l137 -219q10 -16 19.5 -35.5t13.5 -30.5l4 -12l20 44q9 18 20 34l145 219z" />
    <glyph glyph-name="Z" unicode="Z" horiz-adv-x="597" 
d="M555 602l-284 -407q-19 -27 -38 -50.5t-29 -33.5l-9 -10q74 7 122 7h218v-108h-453l-40 92l282 403q19 27 38.5 52t29.5 36l10 11q-72 -7 -120 -7h-215v107h448z" />
    <glyph glyph-name="bracketleft" unicode="[" horiz-adv-x="332" 
d="M322 645h-117l-5 -670h116v-83h-226l6 835h226v-82z" />
    <glyph glyph-name="backslash" unicode="\" horiz-adv-x="383" 
d="M388 -7l-96 -23l-296 728l96 23z" />
    <glyph glyph-name="bracketright" unicode="]" horiz-adv-x="332" 
d="M242 726l-6 -835h-226v82h117l5 670h-116v83h226z" />
    <glyph glyph-name="asciicircum" unicode="^" 
d="M527 280h-133l-106 275l-102 -275h-132l180 432h113z" />
    <glyph glyph-name="underscore" unicode="_" horiz-adv-x="500" 
d="M500 -126h-500v50h500v-50z" />
    <glyph glyph-name="grave" unicode="`" horiz-adv-x="291" 
d="M225 598l-74 -24l-133 146l115 49z" />
    <glyph glyph-name="a" unicode="a" horiz-adv-x="541" 
d="M535 32q-71 -43 -126 -43q-35 0 -60 18t-27 51q-27 -31 -65 -50t-74 -19q-61 0 -101 36t-40 103q0 74 57 119.5t213 70.5l1 49q1 30 -16.5 44t-38.5 14q-58 0 -138 -68l-55 69q74 61 121.5 78.5t97.5 17.5q67 0 114 -34.5t46 -109.5l-5 -242q0 -21 4.5 -32.5t9.5 -13.5
t13 -2q9 0 36 13zM310 236q-85 -13 -113.5 -34t-28.5 -62q0 -27 17.5 -43t46.5 -16q31 0 76 49z" />
    <glyph glyph-name="b" unicode="b" horiz-adv-x="607" 
d="M562 267q0 -114 -66 -196t-179 -82q-81 0 -134 30l-14 -19h-94l5 757h135l-1 -233l-5 -75q25 32 66.5 52.5t82.5 20.5q103 0 153.5 -68.5t50.5 -186.5zM416 267q0 74 -25 112t-70 38q-61 0 -109 -65l-1 -240q37 -26 80 -26q46 0 76 31.5t39.5 69.5t9.5 80z" />
    <glyph glyph-name="c" unicode="c" horiz-adv-x="488" 
d="M466 474l-60 -85q-1 1 -9.5 6t-14.5 8t-16.5 7.5t-23 6.5t-26.5 2q-66 0 -96 -48.5t-30 -115.5q0 -160 103 -160q55 0 105 47l67 -71q-85 -82 -196 -82q-110 0 -167 65.5t-57 185.5q0 123 71.5 202.5t186.5 79.5q90 0 163 -48z" />
    <glyph glyph-name="d" unicode="d" horiz-adv-x="609" 
d="M534 757l-6 -757h-130l2 64q-26 -33 -68.5 -54t-87.5 -21q-96 0 -147.5 67t-51.5 178q0 138 71 213t166 75q9 0 17 -0.5t14.5 -0.5t13.5 -1.5t11 -2t10.5 -2.5t9 -2.5t9.5 -3t9 -3.5t10.5 -4.5t10.5 -4.5v43l2 217h135zM396 402q-38 24 -79 24q-34 0 -60 -17.5
t-39.5 -45.5t-20 -57.5t-6.5 -60.5q0 -27 4 -50.5t13.5 -47.5t30 -38t48.5 -14q57 0 107 65z" />
    <glyph glyph-name="e" unicode="e" horiz-adv-x="536" 
d="M498 238h-312q0 -73 28.5 -112.5t77.5 -39.5q58 0 105 49l65 -63q-84 -83 -191 -83q-62 0 -107 21.5t-70.5 59.5t-37 82t-11.5 96q0 107 67.5 190.5t174.5 83.5q209 0 211 -252v-32zM377 323q2 43 -20.5 75t-66.5 32q-41 0 -67 -33t-30 -74h184z" />
    <glyph glyph-name="f" unicode="f" horiz-adv-x="352" 
d="M368 767l-5 -93q-8 1 -17 1q-36 0 -59 -12t-32.5 -35t-12 -42.5t-2.5 -49.5v-25h95v-95h-96l-3 -416h-135l3 416h-78v95h79v24q0 45 10.5 84t33.5 74.5t67 55.5t104 19z" />
    <glyph glyph-name="g" unicode="g" horiz-adv-x="590" 
d="M560 427l-82 1q24 -21 24 -78q0 -81 -62 -124t-149 -43q-34 0 -72 11q-51 -26 -51 -49q0 -13 17.5 -18t80.5 -13q29 -4 46 -6q36 -5 50.5 -7t45 -8.5t44 -12.5t33.5 -18t29 -26.5t16 -36t7 -48.5q0 -97 -80 -152.5t-184 -55.5q-113 0 -171 44t-58 105q0 75 93 127
q-107 18 -107 79q0 32 29.5 60.5t95.5 64.5q-74 40 -74 127q0 85 62.5 128.5t151.5 43.5q50 0 97 -15l168 4v-84zM371 351q0 40 -19.5 63t-58.5 23t-59 -23.5t-20 -63.5q0 -83 78 -83q38 0 58.5 22.5t20.5 61.5zM395 -74q0 16 -4.5 26.5t-19.5 22.5t-49.5 19.5t-88.5 10.5
q-23 -14 -36.5 -24.5t-25 -29t-11.5 -40.5q0 -42 33.5 -61t77.5 -19t84 28.5t40 66.5z" />
    <glyph glyph-name="h" unicode="h" horiz-adv-x="593" 
d="M518 371l-3 -371h-135l3 328q1 75 -66 75q-23 0 -52.5 -19.5t-51.5 -44.5l-3 -339h-135l6 757h135l-2 -235q0 -22 -2 -47t-2 -34q93 81 167 81q143 0 141 -151z" />
    <glyph glyph-name="i" unicode="i" horiz-adv-x="291" 
d="M220 737l-1 -118h-143l1 118h143zM214 511l-4 -511h-135l4 511h135z" />
    <glyph glyph-name="j" unicode="j" horiz-adv-x="297" 
d="M226 737l-1 -118h-143l1 118h143zM220 511l-4 -546q-1 -110 -60.5 -166t-188.5 -56v92q59 -3 86 28t28 103l4 545h135z" />
    <glyph glyph-name="k" unicode="k" horiz-adv-x="577" 
d="M563 463l-183 -195l166 -221l-122 -62l-205 275l242 265zM216 757l-6 -757h-135l6 757h135z" />
    <glyph glyph-name="l" unicode="l" horiz-adv-x="291" 
d="M216 757l-6 -757h-135l6 757h135z" />
    <glyph glyph-name="m" unicode="m" horiz-adv-x="894" 
d="M819 378l-3 -378h-135l2 330q0 37 -13 55t-47 18q-47 0 -108 -64l-2 -339h-135l2 318q0 45 -15 64.5t-47 19.5q-30 0 -53.5 -16t-52.5 -48l-2 -338h-135l4 511h128q0 -8 -2 -74q94 85 164 85q113 0 138 -84q35 32 82 58t90 26q75 0 108 -39.5t32 -104.5z" />
    <glyph glyph-name="n" unicode="n" horiz-adv-x="593" 
d="M518 374l-3 -374h-135l2 328q0 75 -64 75q-41 0 -106 -63l-2 -340h-135l4 511h127l-2 -74q30 25 46 37t55 30t74 18q74 0 107 -41t32 -107z" />
    <glyph glyph-name="o" unicode="o" horiz-adv-x="590" 
d="M545 255q0 -111 -69.5 -188.5t-180.5 -77.5q-128 0 -189 73.5t-61 192.5q0 108 69 187.5t181 79.5q117 0 183.5 -71.5t66.5 -195.5zM401 255q0 163 -106 163q-105 0 -105 -163t105 -163q40 0 65 28.5t33 62.5t8 72z" />
    <glyph glyph-name="p" unicode="p" horiz-adv-x="610" 
d="M562 277q0 -138 -71 -213t-166 -75q-9 0 -17 0.5t-14.5 0.5t-13.5 1.5t-11 2t-10.5 2.5t-9 2.5t-9.5 3t-9 3.5t-10.5 4.5t-10.5 4.5v-43l-2 -217h-135l6 757h130l-2 -64q26 33 68.5 54t87.5 21q96 0 147.5 -67t51.5 -178zM416 269q0 27 -4 50.5t-13.5 47.5t-30 38
t-48.5 14q-57 0 -107 -65l-2 -242q38 -24 79 -24q34 0 60 17.5t39.5 45.5t20 57.5t6.5 60.5z" />
    <glyph glyph-name="q" unicode="q" horiz-adv-x="615" 
d="M537 511l-5 -757h-135l1 233l5 75q-25 -32 -66.5 -52.5t-82.5 -20.5q-103 0 -153.5 68.5t-50.5 186.5q0 114 66 196t179 82q81 0 134 -30l14 19h94zM401 400q-37 26 -80 26q-46 0 -76 -31.5t-39.5 -69.5t-9.5 -80q0 -74 25 -112t70 -38q61 0 109 65z" />
    <glyph glyph-name="r" unicode="r" horiz-adv-x="379" 
d="M378 517l-20 -128q-20 4 -29 4q-35 0 -66.5 -24t-50.5 -64l-3 -305h-134l4 511h130l-2 -87q48 95 135 98q16 0 36 -5z" />
    <glyph glyph-name="s" unicode="s" horiz-adv-x="477" 
d="M432 480l-49 -88q-52 30 -111 30q-83 0 -83 -44q0 -24 24 -39t58.5 -25.5t69.5 -25t59 -48.5t24 -86q0 -80 -64 -122.5t-156 -42.5q-88 0 -170 44l48 90q62 -33 122 -33q33 0 56.5 13t23.5 41q0 21 -17.5 34.5t-43 20t-56 18.5t-56 27t-43 48.5t-17.5 81.5q0 45 23.5 77
t60 46t65.5 19.5t55 5.5q106 0 177 -42z" />
    <glyph glyph-name="t" unicode="t" horiz-adv-x="422" 
d="M401 39q-37 -20 -54 -28t-42.5 -15t-52.5 -7q-76 0 -109.5 34.5t-32.5 123.5l2 269h-76v95h77l1 151h135l-1 -151h109v-95h-110l-2 -263q0 -26 12 -41.5t34 -15.5q29 0 66 24z" />
    <glyph glyph-name="u" unicode="u" horiz-adv-x="596" 
d="M518 511l-3 -511h-128l2 77q-2 -1 -12.5 -10t-15 -12.5t-16 -12.5t-19 -13.5t-19.5 -12t-22 -11.5t-22 -8t-24.5 -6t-24.5 -2q-74 0 -107 42t-32 108l3 372h135l-2 -328q0 -75 64 -75q40 0 107 65l2 338h134z" />
    <glyph glyph-name="v" unicode="v" horiz-adv-x="516" 
d="M504 494l-183 -494h-140l-168 488l128 38l86 -266q10 -30 18 -66t11 -58l3 -21q7 67 34 144l95 267z" />
    <glyph glyph-name="w" unicode="w" horiz-adv-x="836" 
d="M810 497l-150 -497h-157l-59 266l-23 139q-13 -80 -28 -137l-71 -268h-161l-132 490l133 32l64 -272q7 -28 13.5 -64t9.5 -58l3 -23q11 78 29 144l70 262h154l61 -262q8 -32 14.5 -68t9.5 -56l2 -20q10 76 28 142l74 276z" />
    <glyph glyph-name="x" unicode="x" horiz-adv-x="551" 
d="M510 477l-153 -216l152 -221l-124 -56l-91 145l-30 56q-15 -33 -32 -58l-95 -143l-108 49l165 230l-145 207l125 56l84 -128q8 -12 15.5 -27t11.5 -24l4 -9q11 28 30 58l85 130z" />
    <glyph glyph-name="y" unicode="y" horiz-adv-x="520" 
d="M513 492l-190 -490q-2 -5 -9.5 -25t-10 -26.5t-10 -24.5t-11.5 -26t-10.5 -23t-12 -24t-12.5 -20t-14 -20t-14 -16q-54 -54 -149 -54h-51v98h30q61 0 88 27q24 24 64 132h-18l-160 486l130 38l80 -264q11 -35 18.5 -71.5t10.5 -54.5l2 -19q6 60 37 144l98 266z" />
    <glyph glyph-name="z" unicode="z" horiz-adv-x="477" 
d="M445 429l-203 -275q-11 -15 -25 -31t-23 -25l-8 -9q30 6 79 6h154v-95h-350l-39 82l207 281q9 13 22.5 27.5t22.5 23.5l9 8q-40 -6 -76 -6h-160v95h351z" />
    <glyph glyph-name="braceleft" unicode="{" horiz-adv-x="332" 
d="M341 644h-62q-57 0 -57 -74v-141q0 -20 -4 -37t-9.5 -28t-14 -20t-16 -14.5t-17.5 -9.5t-16 -5t-13 -3l-8 -1q1 0 14 -4.5t20.5 -7.5t21 -12.5t21 -21t13.5 -31.5t6 -44l-1 -143q0 -72 55 -72h59v-83h-93q-56 0 -94.5 31.5t-37.5 102.5l3 152q1 49 -24.5 71t-73.5 20v86
q49 -1 74 19t25 69l1 149q1 67 41 100.5t92 33.5h95v-82z" />
    <glyph glyph-name="bar" unicode="|" horiz-adv-x="435" 
d="M285 -247h-134v1004h133z" />
    <glyph glyph-name="braceright" unicode="}" horiz-adv-x="332" 
d="M319 263q-99 2 -99 -89l-1 -148q-1 -67 -41 -100.5t-92 -33.5h-95v82h62q57 0 57 75v139q0 20 4 37t9.5 28t14 20t16 14.5t17.5 9.5t16 5t13 2l8 2q-1 0 -14 4.5t-20.5 7.5t-21 12.5t-21 21t-13.5 31t-6 44.5q0 22 0.5 72.5t0.5 72.5q0 71 -55 71h-59v83h93
q56 0 93.5 -31t37.5 -103q0 -24 -1 -77t-1 -76q0 -92 98 -90v-86z" />
    <glyph glyph-name="asciitilde" unicode="~" 
d="M556 357q-3 -38 -16 -76q-12 -35 -30 -59t-48 -38q-27 -13 -61 -13q-16 0 -40 6q-7 2 -41 11q-31 9 -43 13l-56 18q-23 7 -44 13q-15 4 -26 4q-14 0 -26 -6q-13 -6 -20 -18q-11 -16 -14 -39h-82q3 40 14 73q11 32 30 57q20 26 49 41q28 15 62 15q14 0 34 -5q29 -7 77 -22
l48 -15q30 -9 57 -16q16 -4 36 -4q11 0 23 5q10 4 19 15q8 10 10 16q3 9 6 24h82z" />
    <glyph glyph-name="nbspace" unicode="&#xa0;" horiz-adv-x="290" 
 />
    <glyph glyph-name="exclamdown" unicode="&#xa1;" horiz-adv-x="353" 
d="M252 376h-146v136h146v-136zM243 131l-1 -311h-137l2 308l11 168h114z" />
    <glyph glyph-name="cent" unicode="&#xa2;" 
d="M517 474l-64 -82q-30 19 -62 24l-67 -323q66 -4 124 49l68 -69q-88 -85 -213 -82l-18 -88l-56 6l19 89q-78 19 -125 82.5t-47 166.5q0 114 81.5 195.5t198.5 78.5l18 83l55 -4l-18 -84q58 -10 106 -42zM335 419q-57 -7 -85.5 -57.5t-28.5 -106.5q0 -103 50 -142z" />
    <glyph glyph-name="sterling" unicode="&#xa3;" 
d="M559 695l-14 -99q-36 5 -58 5q-78 0 -112.5 -37t-44.5 -114l-5 -41h136l-12 -98l-134 1l-7 -59q-16 -127 -74 -148q16 3 98 3h189l-11 -109l-465 1l10 89q102 3 116 162l6 61h-99l10 97h100l5 47q12 114 81 180t186 66z" />
    <glyph glyph-name="currency" unicode="&#xa4;" 
d="M33 178l67 67q-31 62 -31 112q0 54 31 113l-67 67l78 77l67 -66q69 31 112 31q53 0 114 -32l66 67l77 -77l-67 -67q32 -58 32 -113q0 -59 -32 -113l67 -66l-77 -78l-67 67q-49 -31 -112 -31q-56 0 -113 31l-68 -67zM290 463q-44 0 -75 -31.5t-31 -74.5t31 -74.5t75 -31.5
t75 31.5t31 74.5q0 44 -31 75t-75 31z" />
    <glyph glyph-name="yen" unicode="&#xa5;" 
d="M577 657l-159 -237l-30 -41q32 4 49 4h65v-81h-151l-1 -60l150 1v-81h-151l-1 -162h-137l2 161l-145 1v81h145l1 59h-144v81h65l42 -4q-14 18 -26 37l-148 232l127 65l130 -225q7 -12 16 -31.5t14 -32.5l5 -13q22 58 36 80l138 220z" />
    <glyph glyph-name="brokenbar" unicode="&#xa6;" horiz-adv-x="435" 
d="M285 412l-134 -1v251l134 1v-251zM285 -89h-133v251h133v-251z" />
    <glyph glyph-name="section" unicode="&#xa7;" 
d="M527 311q0 -72 -109 -135q80 -40 80 -130q0 -86 -69.5 -132.5t-161.5 -46.5q-117 0 -191 36l42 94q66 -31 139 -31q42 0 72.5 17t30.5 52q0 27 -22.5 44.5t-56.5 24.5t-74 19t-74 26.5t-56.5 47.5t-22.5 82q0 68 111 125q-79 41 -79 127q0 84 65.5 129t163.5 45
q117 0 191 -36l-42 -94q-66 31 -139 31q-41 0 -72 -15.5t-31 -44.5q0 -30 22.5 -49.5t56.5 -26.5t73.5 -18t73.5 -23t56.5 -42.5t22.5 -75.5zM397 278q0 19 -8 33t-26.5 23.5t-33 14.5t-44 13t-43.5 12q-56 -33 -56 -73q0 -19 8 -33t26.5 -23.5t33 -14.5t44 -13t43.5 -12
q56 33 56 73z" />
    <glyph glyph-name="dieresis" unicode="&#xa8;" horiz-adv-x="291" 
d="M306 578h-120v114h120v-114zM105 577h-120v114h120v-114z" />
    <glyph glyph-name="copyright" unicode="&#xa9;" horiz-adv-x="824" 
d="M768 346q0 -149 -98 -252.5t-258 -103.5q-152 0 -254 100t-102 256q0 152 100 254t256 102q158 0 257 -102.5t99 -253.5zM696 345q0 130 -80 214.5t-204 84.5q-129 0 -207 -86t-78 -213q0 -134 83 -215.5t202 -81.5q125 0 204.5 83.5t79.5 213.5zM593 538l-47 -77
q-41 22 -90 22q-58 0 -96 -37t-38 -96q0 -62 33 -99t94 -37q35 0 95 25l41 -78q-81 -39 -145 -39q-108 0 -174 56.5t-66 167.5q0 99 72 163t170 64q84 0 151 -35z" />
    <glyph glyph-name="ordfeminine" unicode="&#xaa;" horiz-adv-x="428" 
d="M385 301q-50 -29 -91 -29q-44 0 -44 43q-34 -43 -83 -43q-43 0 -67 23t-24 66q0 16 5 30.5t10.5 24t20 19t22 14t27 11t26 8.5t29 7t25.5 6v18q0 32 -27 32q-34 0 -85 -36l-41 44q73 58 145 58q48 0 71.5 -18t22.5 -64l-3 -152q0 -20 17 -20q12 0 22 6zM240 426
q-4 -1 -18 -4t-17.5 -4t-13.5 -4t-12.5 -6t-7.5 -8.5t-6.5 -13t-1.5 -16.5q0 -15 9.5 -23.5t21.5 -8.5q26 0 44 23z" />
    <glyph glyph-name="guillemotleft" unicode="&#xab;" horiz-adv-x="520" 
d="M457 93l-64 -28l-163 199l162 198l65 -28l-112 -171zM267 91l-65 -27l-162 198l163 199l64 -28l-112 -170z" />
    <glyph glyph-name="logicalnot" unicode="&#xac;" 
d="M550 88h-127v230h-403v124h530v-354z" />
    <glyph glyph-name="registered" unicode="&#xae;" horiz-adv-x="824" 
d="M768 346q0 -149 -98 -252.5t-258 -103.5q-152 0 -254 100t-102 256q0 152 100 254t256 102q158 0 257 -102.5t99 -253.5zM696 345q0 130 -80 214.5t-204 84.5q-129 0 -207 -86t-78 -213q0 -134 83 -215.5t202 -81.5q125 0 204.5 83.5t79.5 213.5zM609 158l-112 -40
l-130 195l24 43l5 1q5 1 8.5 1.5t10.5 2t12 3.5t12 5.5t12 7.5t10.5 10t9 12.5t6 15t2.5 18.5q0 59 -80 59q-7 0 -27 -1.5t-27 -1.5l-3 -359h-116l4 435q178 7 202 7q167 0 167 -128q0 -50 -29.5 -85t-71.5 -45q19 -18 27 -29z" />
    <glyph glyph-name="macron" unicode="&#xaf;" horiz-adv-x="291" 
d="M296 587h-290v86h290v-86z" />
    <glyph glyph-name="degree" unicode="&#xb0;" horiz-adv-x="437" 
d="M381 552q0 -62 -46 -107t-114 -45q-70 0 -115.5 41.5t-45.5 110.5q0 63 46.5 106.5t114.5 43.5q71 0 115.5 -40t44.5 -110zM303 551q0 39 -22 63t-60 24q-37 0 -60 -25t-23 -62q0 -38 23.5 -62.5t59.5 -24.5t59 25.5t23 61.5z" />
    <glyph glyph-name="plusminus" unicode="&#xb1;" 
d="M555 279h-201v-150h-128v150h-201v124h201v157h128v-157h201v-124zM555 -29h-530v124h530v-124z" />
    <glyph glyph-name="twosuperior" unicode="&#xb2;" horiz-adv-x="338" 
d="M311 577q0 -46 -25 -84.5t-70 -80.5q-37 -35 -89 -65q28 3 53 3h130v-70h-278l-20 51q123 95 165 146.5t42 87.5q0 70 -72 70q-43 0 -91 -27l-33 54q66 40 138 40q150 0 150 -125z" />
    <glyph glyph-name="threesuperior" unicode="&#xb3;" horiz-adv-x="338" 
d="M309 394q0 -45 -43 -83.5t-133 -38.5q-78 0 -122 31l34 54q38 -24 88 -24q33 0 59 18t26 48q0 32 -23.5 44.5t-74.5 12.5h-48v63h46q100 0 100 67q0 26 -22 39.5t-52 13.5q-44 0 -91 -25l-32 52q68 36 136 36q150 0 150 -105q0 -41 -26.5 -67.5t-66.5 -38.5
q95 -12 95 -97z" />
    <glyph glyph-name="acute" unicode="&#xb4;" horiz-adv-x="291" 
d="M279 720l-133 -146l-71 24l92 171z" />
    <glyph glyph-name="mu" unicode="&#xb5;" 
d="M513 511l-3 -511h-128l2 76q-30 -24 -43.5 -34.5t-39.5 -26t-50.5 -21t-52.5 -4.5l-1 -237h-129l5 758h135l-2 -327q0 -75 64 -75q41 0 106 63l2 339h135z" />
    <glyph glyph-name="paragraph" unicode="&#xb6;" 
d="M528 694l-4 -817h-109l5 731h-97l-4 -731h-109l3 462q-104 -5 -161.5 39.5t-57.5 129.5q0 186 218 186h316z" />
    <glyph glyph-name="periodcentered" unicode="&#xb7;" horiz-adv-x="290" 
d="M218 200h-145v140h145v-140z" />
    <glyph glyph-name="cedilla" unicode="&#xb8;" horiz-adv-x="291" 
d="M247 -133q0 -39 -21.5 -65t-56.5 -37t-62.5 -15t-55.5 -4l9 58q86 0 86 54q0 38 -49 38l-30 -1l7 66q10 3 55 3q118 0 118 -97z" />
    <glyph glyph-name="onesuperior" unicode="&#xb9;" horiz-adv-x="338" 
d="M266 683l-3 -403h-87l2 280l6 59q-18 -24 -38 -40l-48 -38l-57 47l153 115z" />
    <glyph glyph-name="ordmasculine" unicode="&#xba;" horiz-adv-x="442" 
d="M385 434q0 -72 -40.5 -117t-120.5 -45q-162 0 -162 162q0 67 41 115t121 48q79 0 120 -41.5t41 -121.5zM292 432q0 19 -1.5 32.5t-7.5 31t-21 27t-38 9.5q-69 0 -69 -100q0 -95 69 -95q37 0 52.5 29.5t15.5 65.5z" />
    <glyph glyph-name="guillemotright" unicode="&#xbb;" horiz-adv-x="520" 
d="M483 266l-163 -199l-65 28l113 170l-112 172l65 27zM293 264l-162 -198l-65 28l112 171l-113 170l65 28z" />
    <glyph glyph-name="onequarter" unicode="&#xbc;" horiz-adv-x="810" 
d="M798 101h-67l-1 -101h-85l1 101h-168l-26 55l205 264l77 -12l-2 -245h66v-62zM661 698l-456 -726l-64 24l456 728zM266 683l-3 -403h-86l2 280l5 59q-18 -24 -38 -40l-48 -38l-57 47l154 115zM658 340q-15 -34 -37 -64l-60 -82l-33 -35q19 4 43 4h77l4 97z" />
    <glyph glyph-name="onehalf" unicode="&#xbd;" horiz-adv-x="810" 
d="M769 296q0 -46 -25 -84.5t-70 -80.5q-34 -32 -89 -64q28 3 53 3h130v-70h-278l-20 51q123 95 165 146.5t42 86.5q0 71 -72 71q-43 0 -91 -27l-33 54q66 40 138 40q150 0 150 -126zM661 698l-456 -726l-64 24l456 728zM266 683l-3 -403h-86l2 280l5 59q-18 -24 -38 -40
l-48 -38l-57 47l154 115z" />
    <glyph glyph-name="threequarters" unicode="&#xbe;" horiz-adv-x="810" 
d="M798 101h-67l-1 -101h-85l1 101h-168l-26 55l205 264l77 -12l-2 -245h66v-62zM661 698l-456 -726l-64 24l456 728zM309 394q0 -45 -43 -83.5t-133 -38.5q-78 0 -122 31l34 54q38 -24 88 -24q33 0 59 18t26 48q0 32 -23.5 45t-74.5 13h-48v63h46q100 0 100 66
q0 26 -22 39.5t-52 13.5q-44 0 -91 -25l-32 52q68 36 136 36q150 0 150 -105q0 -78 -93 -105q41 -5 68 -28.5t27 -69.5zM658 340q-15 -34 -37 -64l-60 -82l-33 -35q19 4 43 4h77l4 97z" />
    <glyph glyph-name="questiondown" unicode="&#xbf;" horiz-adv-x="526" 
d="M369 372h-148v140h148v-140zM472 -116q-30 -24 -92 -49t-121 -25q-211 0 -211 171q0 37 14.5 68t30.5 47t45.5 40.5t41.5 36.5q44 44 44 99v36h138v-35q0 -49 -13 -79t-44 -61q-8 -8 -45 -37.5t-55 -53.5t-18 -52q0 -40 28 -57.5t64 -17.5q72 0 135 49z" />
    <glyph glyph-name="Agrave" unicode="&#xc0;" horiz-adv-x="670" 
d="M403 763l-74 -24l-133 146l115 49zM652 19l-136 -31l-68 198h-250l-74 -197l-122 28l267 677h135zM412 292l-44 125q-13 38 -23.5 79.5t-14.5 63.5l-3 23q-16 -87 -44 -166l-44 -125h173z" />
    <glyph glyph-name="Aacute" unicode="&#xc1;" horiz-adv-x="670" 
d="M465 885l-133 -146l-71 24l92 171zM652 19l-136 -31l-68 198h-250l-74 -197l-122 28l267 677h135zM412 292l-44 125q-13 38 -23.5 79.5t-14.5 63.5l-3 23q-16 -87 -44 -166l-44 -125h173z" />
    <glyph glyph-name="Acircumflex" unicode="&#xc2;" horiz-adv-x="670" 
d="M494 772l-73 -32l-87 92l-92 -92l-67 30l113 151h96zM652 19l-136 -31l-68 198h-250l-74 -197l-122 28l267 677h135zM412 292l-44 125q-13 38 -23.5 79.5t-14.5 63.5l-3 23q-16 -87 -44 -166l-44 -125h173z" />
    <glyph glyph-name="Atilde" unicode="&#xc3;" horiz-adv-x="670" 
d="M528 872q-28 -128 -121 -128q-31 0 -76.5 23.5t-65.5 23.5q-19 0 -29.5 -12t-18.5 -39l-66 15q28 128 121 128q31 0 76.5 -23.5t65.5 -23.5q19 0 29.5 12t18.5 39zM652 19l-136 -31l-68 198h-250l-74 -197l-122 28l267 677h135zM412 292l-44 125q-13 38 -23.5 79.5
t-14.5 63.5l-3 23q-16 -87 -44 -166l-44 -125h173z" />
    <glyph glyph-name="Adieresis" unicode="&#xc4;" horiz-adv-x="670" 
d="M498 754h-120v114h120v-114zM297 753h-120v114h120v-114zM652 19l-136 -31l-68 198h-250l-74 -197l-122 28l267 677h135zM412 292l-44 125q-13 38 -23.5 79.5t-14.5 63.5l-3 23q-16 -87 -44 -166l-44 -125h173z" />
    <glyph glyph-name="Aring" unicode="&#xc5;" horiz-adv-x="670" 
d="M463 849q0 -51 -37.5 -86t-94.5 -35q-55 0 -93 31.5t-38 89.5q0 52 37.5 87t94.5 35q58 0 94.5 -32.5t36.5 -89.5zM652 19l-136 -31l-68 198h-250l-74 -197l-122 28l267 677h135zM381 850q0 24 -13 37t-36 13q-22 0 -36 -14.5t-14 -35.5q0 -22 13.5 -36.5t36.5 -14.5
q22 0 35.5 14t13.5 37zM412 292l-44 125q-13 38 -23.5 79.5t-14.5 63.5l-3 23q-16 -87 -44 -166l-44 -125h173z" />
    <glyph glyph-name="AE" unicode="&#xc6;" horiz-adv-x="922" 
d="M841 0h-404l2 194h-225l-125 -208l-115 45l414 663h453v-107h-262l-2 -177h260v-106h-260l-1 -196h265v-108zM446 603q-24 -59 -46 -96l-122 -207h162l2 199z" />
    <glyph glyph-name="Ccedilla" unicode="&#xc7;" horiz-adv-x="648" 
d="M618 659l-53 -87q-72 30 -141 30q-88 0 -153.5 -74t-65.5 -178q0 -110 55.5 -182.5t159.5 -72.5q68 0 138 37l53 -90q-40 -21 -95.5 -37t-95.5 -16q-164 0 -264.5 88.5t-100.5 266.5q0 99 51.5 183t136.5 131t182 47q59 0 101.5 -10.5t91.5 -35.5zM443 -133
q0 -39 -21.5 -65t-56.5 -37t-62.5 -15t-55.5 -4l9 58q86 0 86 54q0 38 -49 38l-30 -1l7 66q10 3 55 3q118 0 118 -97z" />
    <glyph glyph-name="Egrave" unicode="&#xc8;" horiz-adv-x="584" 
d="M377 761l-74 -24l-133 146l115 49zM503 0h-404l5 694h399v-107h-262l-1 -179h259v-107h-260l-1 -194h265v-107z" />
    <glyph glyph-name="Eacute" unicode="&#xc9;" horiz-adv-x="584" 
d="M439 883l-133 -146l-71 24l92 171zM503 0h-404l5 694h399v-107h-262l-1 -179h259v-107h-260l-1 -194h265v-107z" />
    <glyph glyph-name="Ecircumflex" unicode="&#xca;" horiz-adv-x="584" 
d="M467 770l-73 -32l-87 92l-92 -92l-67 30l113 151h96zM503 0h-404l5 694h399v-107h-262l-1 -179h259v-107h-260l-1 -194h265v-107z" />
    <glyph glyph-name="Edieresis" unicode="&#xcb;" horiz-adv-x="584" 
d="M464 754h-120v114h120v-114zM263 753h-120v114h120v-114zM503 0h-404l5 694h399v-107h-262l-1 -179h259v-107h-260l-1 -194h265v-107z" />
    <glyph glyph-name="Igrave" unicode="&#xcc;" horiz-adv-x="341" 
d="M244 761l-74 -24l-133 146l115 49zM242 694l-5 -694h-138l5 694h138z" />
    <glyph glyph-name="Iacute" unicode="&#xcd;" horiz-adv-x="341" 
d="M307 883l-133 -146l-71 24l92 171zM242 694l-5 -694h-138l5 694h138z" />
    <glyph glyph-name="Icircumflex" unicode="&#xce;" horiz-adv-x="341" 
d="M332 770l-73 -32l-87 92l-92 -92l-67 30l113 151h96zM242 694l-5 -694h-138l5 694h138z" />
    <glyph glyph-name="Idieresis" unicode="&#xcf;" horiz-adv-x="341" 
d="M333 747h-120v114h120v-114zM132 746h-120v114h120v-114zM242 694l-5 -694h-138l5 694h138z" />
    <glyph glyph-name="Eth" unicode="&#xd0;" horiz-adv-x="761" 
d="M706 361q0 -69 -21.5 -128.5t-58.5 -102.5t-85 -74.5t-102 -46.5t-108 -15l-232 6l2 304h-73v86h74l2 304q155 10 235 10q76 0 138 -17t115.5 -54.5t83.5 -106.5t30 -165zM556 358q0 110 -55.5 176.5t-157.5 66.5q-37 0 -103 -3l-1 -208h173v-86h-173l-1 -204
q54 -2 94 -2q95 0 159.5 75.5t64.5 184.5z" />
    <glyph glyph-name="Ntilde" unicode="&#xd1;" horiz-adv-x="790" 
d="M567 872q-28 -128 -121 -128q-31 0 -76.5 23.5t-65.5 23.5q-19 0 -29.5 -12t-18.5 -39l-66 15q28 128 121 128q31 0 76.5 -23.5t65.5 -23.5q19 0 29.5 12t18.5 39zM691 694l-6 -675l-158 -37l-249 437q-19 32 -34.5 66t-21.5 52l-7 18q9 -88 9 -143l-1 -412h-124l5 671
l159 36l247 -435q18 -32 34 -66t23 -52l7 -18q-8 88 -8 143l1 415h124z" />
    <glyph glyph-name="Ograve" unicode="&#xd2;" horiz-adv-x="818" 
d="M458 761l-74 -24l-133 146l115 49zM763 348q0 -151 -102.5 -255t-250.5 -104q-165 0 -260 92t-95 267q0 151 101 254t254 103q166 0 259.5 -96.5t93.5 -260.5zM613 348q0 118 -51.5 186t-151.5 68q-90 0 -148 -68.5t-58 -185.5q0 -256 206 -256q97 0 150 75t53 181z" />
    <glyph glyph-name="Oacute" unicode="&#xd3;" horiz-adv-x="818" 
d="M565 883l-133 -146l-71 24l92 171zM763 348q0 -151 -102.5 -255t-250.5 -104q-165 0 -260 92t-95 267q0 151 101 254t254 103q166 0 259.5 -96.5t93.5 -260.5zM613 348q0 118 -51.5 186t-151.5 68q-90 0 -148 -68.5t-58 -185.5q0 -256 206 -256q97 0 150 75t53 181z" />
    <glyph glyph-name="Ocircumflex" unicode="&#xd4;" horiz-adv-x="818" 
d="M571 769l-73 -32l-87 92l-92 -92l-67 30l113 151h96zM763 348q0 -151 -102.5 -255t-250.5 -104q-165 0 -260 92t-95 267q0 151 101 254t254 103q166 0 259.5 -96.5t93.5 -260.5zM613 348q0 118 -51.5 186t-151.5 68q-90 0 -148 -68.5t-58 -185.5q0 -256 206 -256
q97 0 150 75t53 181z" />
    <glyph glyph-name="Otilde" unicode="&#xd5;" horiz-adv-x="818" 
d="M594 872q-28 -128 -121 -128q-31 0 -76.5 23.5t-65.5 23.5q-19 0 -29.5 -12t-18.5 -39l-66 15q28 128 121 128q31 0 76.5 -23.5t65.5 -23.5q19 0 29.5 12t18.5 39zM763 348q0 -151 -102.5 -255t-250.5 -104q-165 0 -260 92t-95 267q0 151 101 254t254 103
q166 0 259.5 -96.5t93.5 -260.5zM613 348q0 118 -51.5 186t-151.5 68q-90 0 -148 -68.5t-58 -185.5q0 -256 206 -256q97 0 150 75t53 181z" />
    <glyph glyph-name="Odieresis" unicode="&#xd6;" horiz-adv-x="818" 
d="M571 753h-120v114h120v-114zM370 752h-120v114h120v-114zM763 348q0 -151 -102.5 -255t-250.5 -104q-165 0 -260 92t-95 267q0 151 101 254t254 103q166 0 259.5 -96.5t93.5 -260.5zM613 348q0 118 -51.5 186t-151.5 68q-90 0 -148 -68.5t-58 -185.5q0 -256 206 -256
q97 0 150 75t53 181z" />
    <glyph glyph-name="multiply" unicode="&#xd7;" 
d="M545 90l-82 -82l-172 173l-173 -173l-82 82l173 173l-173 173l82 81l173 -173l172 173l82 -81l-172 -173z" />
    <glyph glyph-name="Oslash" unicode="&#xd8;" horiz-adv-x="818" 
d="M763 347q0 -151 -102 -254.5t-251 -103.5q-126 0 -211 52l-68 -84l-56 33l73 91q-93 91 -93 266q0 151 101 254.5t254 103.5q119 0 202 -51l69 84l56 -33l-73 -91q99 -94 99 -267zM536 560q-50 42 -126 42q-90 0 -148 -69t-58 -186q0 -99 31 -160zM613 347q0 101 -35 162
l-302 -374q49 -43 134 -43q97 0 150 75t53 180z" />
    <glyph glyph-name="Ugrave" unicode="&#xd9;" horiz-adv-x="752" 
d="M445 761l-74 -24l-133 146l115 49zM661 694l-2 -446q-1 -124 -81 -191.5t-208 -67.5q-127 0 -201.5 68t-73.5 198q2 294 3 439h137l-3 -446q-1 -79 41.5 -118t110.5 -39q73 0 112.5 45.5t39.5 118.5l2 439h123z" />
    <glyph glyph-name="Uacute" unicode="&#xda;" horiz-adv-x="752" 
d="M527 883l-133 -146l-71 24l92 171zM661 694l-2 -446q-1 -124 -81 -191.5t-208 -67.5q-127 0 -201.5 68t-73.5 198q2 294 3 439h137l-3 -446q-1 -79 41.5 -118t110.5 -39q73 0 112.5 45.5t39.5 118.5l2 439h123z" />
    <glyph glyph-name="Ucircumflex" unicode="&#xdb;" horiz-adv-x="752" 
d="M545 770l-73 -32l-87 92l-92 -92l-67 30l113 151h96zM661 694l-2 -446q-1 -124 -81 -191.5t-208 -67.5q-127 0 -201.5 68t-73.5 198q2 294 3 439h137l-3 -446q-1 -79 41.5 -118t110.5 -39q73 0 112.5 45.5t39.5 118.5l2 439h123z" />
    <glyph glyph-name="Udieresis" unicode="&#xdc;" horiz-adv-x="752" 
d="M553 754h-120v114h120v-114zM352 753h-120v114h120v-114zM661 694l-2 -446q-1 -124 -81 -191.5t-208 -67.5q-127 0 -201.5 68t-73.5 198q2 294 3 439h137l-3 -446q-1 -79 41.5 -118t110.5 -39q73 0 112.5 45.5t39.5 118.5l2 439h123z" />
    <glyph glyph-name="Yacute" unicode="&#xdd;" horiz-adv-x="593" 
d="M448 865l-133 -146l-71 24l92 171zM594 651l-232 -338l-2 -313h-138l2 307l-222 341l123 61l137 -219q10 -16 19.5 -35.5t13.5 -30.5l4 -12l20 44q9 18 20 34l145 219z" />
    <glyph glyph-name="Thorn" unicode="&#xde;" horiz-adv-x="637" 
d="M598 386q0 -50 -16.5 -89t-43 -63t-64 -39.5t-75.5 -21.5t-80 -6h-81l-1 -167h-138l5 694h138l-1 -104q53 3 110 3q247 0 247 -207zM454 383q0 47 -28 75.5t-85 28.5l-101 -3l-1 -211h81q63 0 98.5 29.5t35.5 80.5z" />
    <glyph glyph-name="germandbls" unicode="&#xdf;" horiz-adv-x="601" 
d="M566 183q0 -89 -63 -138t-179 -49l-61 3l10 89q23 -2 46 -2q44 0 76.5 24t32.5 67q0 26 -16 51t-38.5 45t-45 41.5t-38.5 49.5t-16 60q0 31 22 62t44.5 64t22.5 68q0 27 -18 44t-46 17q-49 0 -69 -33t-21 -93l-4 -553h-135l4 543q1 109 65.5 166t166.5 57q89 0 136 -35
t47 -99q0 -37 -14 -66t-30.5 -43.5t-30.5 -35.5t-14 -46q0 -23 26 -50.5t57 -52t57 -66.5t26 -89z" />
    <glyph glyph-name="agrave" unicode="&#xe0;" horiz-adv-x="541" 
d="M339 598l-74 -24l-133 146l115 49zM535 32q-71 -43 -126 -43q-35 0 -60 18t-27 51q-27 -31 -65 -50t-74 -19q-61 0 -101 36t-40 103q0 74 57 119.5t213 70.5l1 49q1 30 -16.5 44t-38.5 14q-58 0 -138 -68l-55 69q74 61 121.5 78.5t97.5 17.5q67 0 114 -34.5t46 -109.5
l-5 -242q0 -21 4.5 -32.5t9.5 -13.5t13 -2q9 0 36 13zM310 236q-85 -13 -113.5 -34t-28.5 -62q0 -27 17.5 -43t46.5 -16q31 0 76 49z" />
    <glyph glyph-name="aacute" unicode="&#xe1;" horiz-adv-x="541" 
d="M403 720l-133 -146l-71 24l92 171zM535 32q-71 -43 -126 -43q-35 0 -60 18t-27 51q-27 -31 -65 -50t-74 -19q-61 0 -101 36t-40 103q0 74 57 119.5t213 70.5l1 49q1 30 -16.5 44t-38.5 14q-58 0 -138 -68l-55 69q74 61 121.5 78.5t97.5 17.5q67 0 114 -34.5t46 -109.5
l-5 -242q0 -21 4.5 -32.5t9.5 -13.5t13 -2q9 0 36 13zM310 236q-85 -13 -113.5 -34t-28.5 -62q0 -27 17.5 -43t46.5 -16q31 0 76 49z" />
    <glyph glyph-name="acircumflex" unicode="&#xe2;" horiz-adv-x="541" 
d="M425 607l-73 -32l-87 92l-92 -92l-67 30l113 151h96zM535 32q-71 -43 -126 -43q-35 0 -60 18t-27 51q-27 -31 -65 -50t-74 -19q-61 0 -101 36t-40 103q0 74 57 119.5t213 70.5l1 49q1 30 -16.5 44t-38.5 14q-58 0 -138 -68l-55 69q74 61 121.5 78.5t97.5 17.5
q67 0 114 -34.5t46 -109.5l-5 -242q0 -21 4.5 -32.5t9.5 -13.5t13 -2q9 0 36 13zM310 236q-85 -13 -113.5 -34t-28.5 -62q0 -27 17.5 -43t46.5 -16q31 0 76 49z" />
    <glyph glyph-name="atilde" unicode="&#xe3;" horiz-adv-x="541" 
d="M445 715q-28 -128 -121 -128q-31 0 -76.5 23.5t-65.5 23.5q-19 0 -29.5 -12t-18.5 -39l-66 15q28 128 121 128q31 0 76.5 -23.5t65.5 -23.5q19 0 29.5 12t18.5 39zM535 32q-71 -43 -126 -43q-35 0 -60 18t-27 51q-27 -31 -65 -50t-74 -19q-61 0 -101 36t-40 103
q0 74 57 119.5t213 70.5l1 49q1 30 -16.5 44t-38.5 14q-58 0 -138 -68l-55 69q74 61 121.5 78.5t97.5 17.5q67 0 114 -34.5t46 -109.5l-5 -242q0 -21 4.5 -32.5t9.5 -13.5t13 -2q9 0 36 13zM310 236q-85 -13 -113.5 -34t-28.5 -62q0 -27 17.5 -43t46.5 -16q31 0 76 49z" />
    <glyph glyph-name="adieresis" unicode="&#xe4;" horiz-adv-x="541" 
d="M419 601h-120v114h120v-114zM218 600h-120v114h120v-114zM535 32q-71 -43 -126 -43q-35 0 -60 18t-27 51q-27 -31 -65 -50t-74 -19q-61 0 -101 36t-40 103q0 74 57 119.5t213 70.5l1 49q1 30 -16.5 44t-38.5 14q-58 0 -138 -68l-55 69q74 61 121.5 78.5t97.5 17.5
q67 0 114 -34.5t46 -109.5l-5 -242q0 -21 4.5 -32.5t9.5 -13.5t13 -2q9 0 36 13zM310 236q-85 -13 -113.5 -34t-28.5 -62q0 -27 17.5 -43t46.5 -16q31 0 76 49z" />
    <glyph glyph-name="aring" unicode="&#xe5;" horiz-adv-x="541" 
d="M392 698q0 -51 -37.5 -86t-94.5 -35q-55 0 -93 31.5t-38 89.5q0 52 37.5 87t94.5 35q58 0 94.5 -32.5t36.5 -89.5zM535 32q-71 -43 -126 -43q-35 0 -60 18t-27 51q-27 -31 -65 -50t-74 -19q-61 0 -101 36t-40 103q0 74 57 119.5t213 70.5l1 49q1 30 -16.5 44t-38.5 14
q-58 0 -138 -68l-55 69q74 61 121.5 78.5t97.5 17.5q67 0 114 -34.5t46 -109.5l-5 -242q0 -21 4.5 -32.5t9.5 -13.5t13 -2q9 0 36 13zM310 699q0 24 -13 37t-36 13q-22 0 -36 -14.5t-14 -35.5q0 -22 13.5 -36.5t36.5 -14.5q22 0 35.5 14t13.5 37zM310 236
q-85 -13 -113.5 -34t-28.5 -62q0 -27 17.5 -43t46.5 -16q31 0 76 49z" />
    <glyph glyph-name="ae" unicode="&#xe6;" horiz-adv-x="792" 
d="M754 240h-312q0 -73 29 -113.5t78 -40.5q55 0 105 48l64 -60q-84 -85 -190 -85q-123 0 -179 85q-71 -85 -166 -85q-61 0 -101 36t-40 103q0 74 57 119.5t213 70.5l1 47q1 28 -16 43t-39 15q-62 0 -141 -65l-54 70q51 42 97 64t70 26t54 4q98 0 120 -70q22 28 65 49t83 21
q100 0 151 -64.5t51 -184.5v-33zM632 325q2 44 -19 74.5t-65 30.5q-42 0 -68.5 -33t-30.5 -72h183zM310 132v106q-84 -13 -113 -35t-29 -63q0 -27 17.5 -43t46.5 -16q32 0 78 51z" />
    <glyph glyph-name="ccedilla" unicode="&#xe7;" horiz-adv-x="488" 
d="M466 474l-60 -85q-1 1 -9.5 6t-14.5 8t-16.5 7.5t-23 6.5t-26.5 2q-66 0 -96 -48.5t-30 -115.5q0 -160 103 -160q55 0 105 47l67 -71q-85 -82 -196 -82q-110 0 -167 65.5t-57 185.5q0 123 71.5 202.5t186.5 79.5q90 0 163 -48zM357 -133q0 -39 -21.5 -65t-56.5 -37
t-62.5 -15t-55.5 -4l9 58q86 0 86 54q0 38 -49 38l-30 -1l7 66q10 3 55 3q118 0 118 -97z" />
    <glyph glyph-name="egrave" unicode="&#xe8;" horiz-adv-x="536" 
d="M348 598l-74 -24l-133 146l115 49zM498 238h-312q0 -73 28.5 -112.5t77.5 -39.5q58 0 105 49l65 -63q-84 -83 -191 -83q-62 0 -107 21.5t-70.5 59.5t-37 82t-11.5 96q0 107 67.5 190.5t174.5 83.5q209 0 211 -252v-32zM377 323q2 43 -20.5 75t-66.5 32q-41 0 -67 -33
t-30 -74h184z" />
    <glyph glyph-name="eacute" unicode="&#xe9;" horiz-adv-x="536" 
d="M414 720l-133 -146l-71 24l92 171zM498 238h-312q0 -73 28.5 -112.5t77.5 -39.5q58 0 105 49l65 -63q-84 -83 -191 -83q-62 0 -107 21.5t-70.5 59.5t-37 82t-11.5 96q0 107 67.5 190.5t174.5 83.5q209 0 211 -252v-32zM377 323q2 43 -20.5 75t-66.5 32q-41 0 -67 -33
t-30 -74h184z" />
    <glyph glyph-name="ecircumflex" unicode="&#xea;" horiz-adv-x="536" 
d="M440 607l-73 -32l-87 92l-92 -92l-67 30l113 151h96zM498 238h-312q0 -73 28.5 -112.5t77.5 -39.5q58 0 105 49l65 -63q-84 -83 -191 -83q-62 0 -107 21.5t-70.5 59.5t-37 82t-11.5 96q0 107 67.5 190.5t174.5 83.5q209 0 211 -252v-32zM377 323q2 43 -20.5 75t-66.5 32
q-41 0 -67 -33t-30 -74h184z" />
    <glyph glyph-name="edieresis" unicode="&#xeb;" horiz-adv-x="536" 
d="M433 602h-120v114h120v-114zM232 601h-120v114h120v-114zM498 238h-312q0 -73 28.5 -112.5t77.5 -39.5q58 0 105 49l65 -63q-84 -83 -191 -83q-62 0 -107 21.5t-70.5 59.5t-37 82t-11.5 96q0 107 67.5 190.5t174.5 83.5q209 0 211 -252v-32zM377 323q2 43 -20.5 75
t-66.5 32q-41 0 -67 -33t-30 -74h184z" />
    <glyph glyph-name="igrave" unicode="&#xec;" horiz-adv-x="291" 
d="M221 598l-74 -24l-133 146l115 49zM214 511l-4 -511h-135l4 511h135z" />
    <glyph glyph-name="iacute" unicode="&#xed;" horiz-adv-x="291" 
d="M281 720l-133 -146l-71 24l92 171zM214 511l-4 -511h-135l4 511h135z" />
    <glyph glyph-name="icircumflex" unicode="&#xee;" horiz-adv-x="291" 
d="M314 607l-73 -32l-87 92l-92 -92l-67 30l113 151h96zM217 511l-4 -511h-135l4 511h135z" />
    <glyph glyph-name="idieresis" unicode="&#xef;" horiz-adv-x="291" 
d="M311 602h-120v114h120v-114zM110 601h-120v114h120v-114zM214 511l-4 -511h-135l4 511h135z" />
    <glyph glyph-name="eth" unicode="&#xf0;" horiz-adv-x="598" 
d="M549 283q0 -133 -67.5 -213.5t-183.5 -80.5q-124 0 -187 70.5t-63 190.5q0 109 65 188.5t179 79.5q24 0 43 -3.5t25 -6.5l7 -4q-20 58 -73 112l-105 -56l-26 71l69 37q-47 31 -100 50l55 81q80 -22 153 -74l123 65l27 -70l-91 -49q72 -75 111 -176t39 -212zM404 254
q0 164 -106 164q-105 0 -105 -164q0 -162 105 -162q30 0 52.5 15.5t33 41.5t15.5 52t5 53z" />
    <glyph glyph-name="ntilde" unicode="&#xf1;" horiz-adv-x="593" 
d="M481 715q-28 -128 -121 -128q-31 0 -76.5 23.5t-65.5 23.5q-19 0 -29.5 -12t-18.5 -39l-66 15q28 128 121 128q31 0 76.5 -23.5t65.5 -23.5q19 0 29.5 12t18.5 39zM518 374l-3 -374h-135l2 328q0 75 -64 75q-41 0 -106 -63l-2 -340h-135l4 511h127l-2 -74q30 25 46 37
t55 30t74 18q74 0 107 -41t32 -107z" />
    <glyph glyph-name="ograve" unicode="&#xf2;" horiz-adv-x="590" 
d="M347 598l-74 -24l-133 146l115 49zM545 255q0 -111 -69.5 -188.5t-180.5 -77.5q-128 0 -189 73.5t-61 192.5q0 108 69 187.5t181 79.5q117 0 183.5 -71.5t66.5 -195.5zM401 255q0 163 -106 163q-105 0 -105 -163t105 -163q40 0 65 28.5t33 62.5t8 72z" />
    <glyph glyph-name="oacute" unicode="&#xf3;" horiz-adv-x="590" 
d="M413 720l-133 -146l-71 24l92 171zM545 255q0 -111 -69.5 -188.5t-180.5 -77.5q-128 0 -189 73.5t-61 192.5q0 108 69 187.5t181 79.5q117 0 183.5 -71.5t66.5 -195.5zM401 255q0 163 -106 163q-105 0 -105 -163t105 -163q40 0 65 28.5t33 62.5t8 72z" />
    <glyph glyph-name="ocircumflex" unicode="&#xf4;" horiz-adv-x="590" 
d="M453 607l-73 -32l-87 92l-92 -92l-67 30l113 151h96zM545 255q0 -111 -69.5 -188.5t-180.5 -77.5q-128 0 -189 73.5t-61 192.5q0 108 69 187.5t181 79.5q117 0 183.5 -71.5t66.5 -195.5zM401 255q0 163 -106 163q-105 0 -105 -163t105 -163q40 0 65 28.5t33 62.5t8 72z
" />
    <glyph glyph-name="otilde" unicode="&#xf5;" horiz-adv-x="590" 
d="M473 710q-28 -128 -121 -128q-31 0 -76.5 23.5t-65.5 23.5q-19 0 -29.5 -12t-18.5 -39l-66 15q28 128 121 128q31 0 76.5 -23.5t65.5 -23.5q19 0 29.5 12t18.5 39zM545 255q0 -111 -69.5 -188.5t-180.5 -77.5q-128 0 -189 73.5t-61 192.5q0 108 69 187.5t181 79.5
q117 0 183.5 -71.5t66.5 -195.5zM401 255q0 163 -106 163q-105 0 -105 -163t105 -163q40 0 65 28.5t33 62.5t8 72z" />
    <glyph glyph-name="odieresis" unicode="&#xf6;" horiz-adv-x="590" 
d="M452 602h-120v114h120v-114zM251 601h-120v114h120v-114zM545 255q0 -111 -69.5 -188.5t-180.5 -77.5q-128 0 -189 73.5t-61 192.5q0 108 69 187.5t181 79.5q117 0 183.5 -71.5t66.5 -195.5zM401 255q0 163 -106 163q-105 0 -105 -163t105 -163q40 0 65 28.5t33 62.5
t8 72z" />
    <glyph glyph-name="divide" unicode="&#xf7;" 
d="M373 458q0 -19 -7 -34q-8 -17 -20 -28q-24 -21 -56 -21q-19 0 -34 7q-17 8 -28 20q-21 24 -21 56q0 19 7 34q8 17 20 28q12 10 26 16q15 6 30 6t30 -6q14 -6 26 -16q12 -11 20 -28q7 -15 7 -34zM555 203h-530v124h530v-124zM373 72q0 -18 -7 -33q-9 -19 -20 -29
q-24 -21 -56 -21q-19 0 -34 7q-16 7 -28 21q-21 24 -21 55q0 19 7 34q9 19 20 29q8 8 26 15q15 6 30 6t30 -6q18 -7 26 -15q12 -11 20 -28q7 -15 7 -35z" />
    <glyph glyph-name="oslash" unicode="&#xf8;" horiz-adv-x="590" 
d="M555 254q0 -109 -74 -187t-186 -78q-85 0 -143 30l-47 -61l-57 27l54 70q-67 67 -67 199q0 110 67.5 189t191.5 79q89 0 139 -33l46 60l57 -27l-54 -70q73 -75 73 -198zM366 402q-31 23 -72 23q-38 0 -65.5 -17.5t-40 -46t-17.5 -55t-5 -54.5q0 -56 17 -93zM424 252
q0 57 -19 100l-184 -243q31 -23 74 -23q62 0 95.5 52t33.5 114z" />
    <glyph glyph-name="ugrave" unicode="&#xf9;" horiz-adv-x="596" 
d="M360 598l-74 -24l-133 146l115 49zM518 510l-3 -511h-128l2 77q-2 -1 -12.5 -10t-15 -12.5t-16 -12.5t-19 -13.5t-19.5 -12t-22 -11.5t-22 -8t-24.5 -6t-24.5 -2q-74 0 -107 42t-32 108l3 372h135l-2 -328q0 -75 64 -75q40 0 107 65l2 338h134z" />
    <glyph glyph-name="uacute" unicode="&#xfa;" horiz-adv-x="596" 
d="M436 720l-133 -146l-71 24l92 171zM518 511l-3 -511h-128l2 77q-2 -1 -12.5 -10t-15 -12.5t-16 -12.5t-19 -13.5t-19.5 -12t-22 -11.5t-22 -8t-24.5 -6t-24.5 -2q-74 0 -107 42t-32 108l3 372h135l-2 -328q0 -75 64 -75q40 0 107 65l2 338h134z" />
    <glyph glyph-name="ucircumflex" unicode="&#xfb;" horiz-adv-x="596" 
d="M457 607l-73 -32l-87 92l-92 -92l-67 30l113 151h96zM518 511l-3 -511h-128l2 77q-2 -1 -12.5 -10t-15 -12.5t-16 -12.5t-19 -13.5t-19.5 -12t-22 -11.5t-22 -8t-24.5 -6t-24.5 -2q-74 0 -107 42t-32 108l3 372h135l-2 -328q0 -75 64 -75q40 0 107 65l2 338h134z" />
    <glyph glyph-name="udieresis" unicode="&#xfc;" horiz-adv-x="596" 
d="M466 602h-120v114h120v-114zM265 601h-120v114h120v-114zM517 511l-3 -511h-128l2 77q-2 -1 -12.5 -10t-15 -12.5t-16 -12.5t-19 -13.5t-19.5 -12t-22 -11.5t-22 -8t-24.5 -6t-24.5 -2q-74 0 -107 42t-32 108l3 372h135l-2 -328q0 -75 64 -75q40 0 107 65l2 338h134z" />
    <glyph glyph-name="yacute" unicode="&#xfd;" horiz-adv-x="520" 
d="M416 720l-133 -146l-71 24l92 171zM513 492l-190 -490q-2 -5 -9.5 -25t-10 -26.5t-10 -24.5t-11.5 -26t-10.5 -23t-12 -24t-12.5 -20t-14 -20t-14 -16q-54 -54 -149 -54h-51v98h30q61 0 88 27q24 24 64 132h-18l-160 486l130 38l80 -264q11 -35 18.5 -71.5t10.5 -54.5
l2 -19q6 60 37 144l98 266z" />
    <glyph glyph-name="thorn" unicode="&#xfe;" horiz-adv-x="610" 
d="M559 278q0 -138 -71 -213t-166 -75q-42 0 -65 7.5t-55 25.5l1 -51l-1 -218h-135l8 1004l136 -1l-3 -231l-4 -80q26 33 66.5 54.5t85.5 21.5q103 0 153 -63.5t50 -180.5zM414 268q0 149 -97 149q-58 0 -110 -68l-2 -239q38 -23 84 -23q47 0 76.5 31t39 69t9.5 81z" />
    <glyph glyph-name="ydieresis" unicode="&#xff;" horiz-adv-x="520" 
d="M435 601h-120v114h120v-114zM234 600h-120v114h120v-114zM513 492l-190 -490q-2 -5 -9.5 -25t-10 -26.5t-10 -24.5t-11.5 -26t-10.5 -23t-12 -24t-12.5 -20t-14 -20t-14 -16q-54 -54 -149 -54h-51v98h30q61 0 88 27q24 24 64 132h-18l-160 486l130 38l80 -264
q11 -35 18.5 -71.5t10.5 -54.5l2 -19q6 60 37 144l98 266z" />
    <glyph glyph-name="dotlessi" unicode="&#x131;" horiz-adv-x="291" 
d="M215 511l-4 -511h-135l4 511h135z" />
    <glyph glyph-name="Lslash" unicode="&#x141;" horiz-adv-x="527" 
d="M483 0h-384l2 308l-62 -33l-29 79l92 49l2 291h137l-1 -218l98 52l27 -82l-126 -65l-1 -272h245v-109z" />
    <glyph glyph-name="lslash" unicode="&#x142;" horiz-adv-x="291" 
d="M328 481l-110 -58l-3 -423h-135l3 351l-56 -30l-28 79l84 45l3 312h135l-2 -240l80 42z" />
    <glyph glyph-name="OE" unicode="&#x152;" horiz-adv-x="1101" 
d="M1020 0h-402l2 74q-36 -36 -95.5 -60.5t-124.5 -24.5q-161 0 -253 91.5t-92 266.5q0 151 100 254.5t248 103.5q142 0 222 -85l-1 74h396v-107h-262l-1 -179h259v-107h-260l-1 -194h265v-107zM613 347q0 118 -51.5 186.5t-151.5 68.5q-90 0 -148 -69t-58 -186
q0 -255 206 -255q97 0 150 75t53 180z" />
    <glyph glyph-name="oe" unicode="&#x153;" horiz-adv-x="886" 
d="M848 241h-312q0 -74 28.5 -114.5t77.5 -40.5q57 0 104 49l70 -66q-81 -80 -195 -80q-120 0 -170 82q-27 -36 -72 -59t-93 -23q-123 0 -182 73.5t-59 191.5q0 107 66.5 187.5t179.5 80.5q121 0 177 -83q26 37 72 60t97 23q209 0 211 -249v-32zM727 326q2 43 -20.5 73.5
t-66.5 30.5q-41 0 -67 -32t-30 -72h184zM401 254q0 164 -104 164q-41 0 -66 -27t-33 -61t-8 -76q0 -162 103 -162q31 0 53 15.5t33.5 41.5t16.5 52t5 53z" />
    <glyph glyph-name="Scaron" unicode="&#x160;" horiz-adv-x="584" 
d="M464 897l-113 -151h-95l-111 149l73 32l88 -92l91 92zM533 655l-54 -94q-27 16 -72.5 26.5t-79.5 10.5q-121 0 -121 -80q0 -32 23.5 -55.5t58.5 -36.5t76 -31.5t75.5 -39.5t58 -61.5t23.5 -96.5q0 -97 -68 -152.5t-185 -55.5q-120 0 -217 51l51 94q79 -36 152 -36
q123 0 123 89q0 36 -32.5 60.5t-78.5 41.5t-92 39t-78.5 67t-32.5 111q0 87 70 143t176 56q128 0 224 -50z" />
    <glyph glyph-name="scaron" unicode="&#x161;" horiz-adv-x="477" 
d="M396 730l-113 -151h-95l-111 149l73 32l88 -92l91 92zM432 480l-49 -88q-52 30 -111 30q-83 0 -83 -44q0 -24 24 -39t58.5 -25.5t69.5 -25t59 -48.5t24 -86q0 -80 -64 -122.5t-156 -42.5q-88 0 -170 44l48 90q62 -33 122 -33q33 0 56.5 13t23.5 41q0 21 -17.5 34.5
t-43 20t-56 18.5t-56 27t-43 48.5t-17.5 81.5q0 45 23.5 77t60 46t65.5 19.5t55 5.5q106 0 177 -42z" />
    <glyph glyph-name="Ydieresis" unicode="&#x178;" horiz-adv-x="593" 
d="M464 747h-120v114h120v-114zM263 746h-120v114h120v-114zM594 651l-232 -338l-2 -313h-138l2 307l-222 341l123 61l137 -219q10 -16 19.5 -35.5t13.5 -30.5l4 -12l20 44q9 18 20 34l145 219z" />
    <glyph glyph-name="Zcaron" unicode="&#x17d;" horiz-adv-x="597" 
d="M469 896l-113 -151h-95l-111 149l73 32l88 -92l91 92zM555 602l-284 -407q-19 -27 -38 -50.5t-29 -33.5l-9 -10q74 7 122 7h218v-108h-453l-40 92l282 403q19 27 38.5 52t29.5 36l10 11q-72 -7 -120 -7h-215v107h448z" />
    <glyph glyph-name="zcaron" unicode="&#x17e;" horiz-adv-x="477" 
d="M413 730l-113 -151h-95l-111 149l73 32l88 -92l91 92zM445 429l-203 -275q-11 -15 -25 -31t-23 -25l-8 -9q30 6 79 6h154v-95h-350l-39 82l207 281q9 13 22.5 27.5t22.5 23.5l9 8q-40 -6 -76 -6h-160v95h351z" />
    <glyph glyph-name="florin" unicode="&#x192;" 
d="M601 764l-23 -94q-24 2 -43 2q-60 0 -99 -47t-53 -108l-28 -124h126l-22 -95h-125l-66 -307q-23 -106 -100 -177t-190 -71l-58 4l23 94q28 -2 43 -2q60 0 99 46.5t52 107.5q22 91 67 305h-83l22 95h81l28 126q23 105 101 177t190 72q32 0 58 -4z" />
    <glyph glyph-name="circumflex" unicode="&#x2c6;" horiz-adv-x="291" 
d="M309 607l-73 -32l-87 92l-92 -92l-67 30l113 151h96z" />
    <glyph glyph-name="caron" unicode="&#x2c7;" horiz-adv-x="291" 
d="M310 730l-113 -151h-95l-111 149l73 32l88 -92l91 92z" />
    <glyph glyph-name="breve" unicode="&#x2d8;" horiz-adv-x="291" 
d="M309 726q-11 -79 -50.5 -115t-110.5 -36q-140 0 -161 151l74 15q10 -44 30.5 -62t56.5 -18t56 18t30 62z" />
    <glyph glyph-name="dotaccent" unicode="&#x2d9;" horiz-adv-x="291" 
d="M203 584h-110v110h110v-110z" />
    <glyph glyph-name="ring" unicode="&#x2da;" horiz-adv-x="291" 
d="M278 688q0 -51 -37.5 -86t-94.5 -35q-55 0 -93 31.5t-38 89.5q0 52 37.5 87t94.5 35q58 0 94.5 -32.5t36.5 -89.5zM196 689q0 24 -13 37t-36 13q-22 0 -36 -14.5t-14 -35.5q0 -22 13.5 -36.5t36.5 -14.5q22 0 35.5 14t13.5 37z" />
    <glyph glyph-name="ogonek" unicode="&#x2db;" horiz-adv-x="291" 
d="M379 23q-7 -2 -18 -6.5t-39 -19t-49.5 -29t-39 -36t-17.5 -41.5q0 -28 14 -42.5t37 -14.5l42 2l4 -61q-46 -7 -70 -7q-132 0 -132 96q0 26 13.5 49.5t30.5 39.5t48 33.5t50.5 26t54.5 22t44 17.5z" />
    <glyph glyph-name="tilde" unicode="&#x2dc;" horiz-adv-x="291" 
d="M347 715q-28 -128 -121 -128q-31 0 -76.5 23.5t-65.5 23.5q-19 0 -29.5 -12t-18.5 -39l-66 15q28 128 121 128q31 0 76.5 -23.5t65.5 -23.5q19 0 29.5 12t18.5 39z" />
    <glyph glyph-name="hungarumlaut" unicode="&#x2dd;" horiz-adv-x="291" 
d="M405 714l-149 -149l-65 25l107 170zM196 714l-149 -149l-65 26l107 169z" />
    <glyph glyph-name="Delta" unicode="&#x394;" 
d="M629 0h-678l262 712h136zM449 119l-168 446l-157 -446h325z" />
    <glyph glyph-name="Omega" unicode="&#x3a9;" horiz-adv-x="793" 
d="M727 0h-284v200q16 3 23 6q49 15 81 57q42 55 42 135q0 47 -16 86q-16 40 -45 67q-25 24 -60 38q-32 13 -70 13q-37 0 -70 -13t-61 -38q-29 -28 -46 -69q-16 -39 -16 -87q0 -37 13 -78q11 -36 35 -64q18 -21 41 -33t55 -20v-200h-283v112h179v35q-3 1 -9 2.5t-8 2.5
q-57 18 -97 66q-32 38 -48 86q-17 51 -17 104q0 69 25 126q19 45 54 83t80 62q76 42 172 42q83 0 151 -30t114 -87q65 -80 65 -194q0 -60 -18 -111q-18 -52 -54 -89q-24 -25 -49 -40q-23 -13 -58 -23v-35h179v-112z" />
    <glyph glyph-name="pi" unicode="&#x3c0;" 
d="M581 16q-33 -16 -49 -19q-23 -5 -44 -5q-30 0 -53 10q-24 11 -38 29q-16 20 -19 56q-2 26 -2 41v246h-182v-374h-124v374h-70v114h579v-114h-79v-211q0 -24 1 -32q2 -13 4 -18q5 -9 12 -12q10 -5 20 -5q16 0 44 11v-91z" />
    <glyph glyph-name="endash" unicode="&#x2013;" horiz-adv-x="500" 
d="M501 207h-501v98h501v-98z" />
    <glyph glyph-name="emdash" unicode="&#x2014;" horiz-adv-x="1000" 
d="M870 207h-740v98h740v-98z" />
    <glyph glyph-name="quoteleft" unicode="&#x2018;" horiz-adv-x="290" 
d="M210 693l-2 -270h-141l59 270h84z" />
    <glyph glyph-name="quoteright" unicode="&#x2019;" horiz-adv-x="290" 
d="M237 693l-59 -270h-84l2 270h141z" />
    <glyph glyph-name="quotesinglbase" unicode="&#x201a;" horiz-adv-x="290" 
d="M227 141l-59 -269h-84l2 269h141z" />
    <glyph glyph-name="quotedblleft" unicode="&#x201c;" horiz-adv-x="478" 
d="M398 693l-2 -270h-141l59 270h84zM210 693l-2 -270h-141l59 270h84z" />
    <glyph glyph-name="quotedblright" unicode="&#x201d;" horiz-adv-x="479" 
d="M426 694l-59 -272h-84l2 272h141zM237 694l-59 -272h-84l2 272h141z" />
    <glyph glyph-name="quotedblbase" unicode="&#x201e;" horiz-adv-x="479" 
d="M416 142l-59 -272h-84l2 272h141zM227 142l-59 -272h-84l2 272h141z" />
    <glyph glyph-name="dagger" unicode="&#x2020;" 
d="M526 399h-170l-2 -399h-136l2 399h-165v113h168l2 180h136l-2 -180h167v-113z" />
    <glyph glyph-name="daggerdbl" unicode="&#x2021;" 
d="M526 419h-169v-125l168 1v-113h-170v-182h-137l1 182h-165v113h166v124h-165v113h168l2 160h136l-2 -160h167v-113z" />
    <glyph glyph-name="bullet" unicode="&#x2022;" 
d="M465 346q0 -72 -51 -122.5t-124 -50.5t-123.5 50t-51.5 123q0 72 51 122.5t124 50.5t124 -50.5t51 -122.5z" />
    <glyph glyph-name="ellipsis" unicode="&#x2026;" horiz-adv-x="1000" 
d="M900 0h-134v134h134v-134zM567 0h-134v134h134v-134zM234 0h-134v134h134v-134z" />
    <glyph glyph-name="perthousand" unicode="&#x2030;" horiz-adv-x="1249" 
d="M1191 206q0 -41 -8 -76.5t-25 -67.5t-49 -51t-76 -19q-84 0 -121.5 61t-37.5 153q0 55 14 101.5t52 80.5t95 34q58 0 94.5 -33.5t49 -79t12.5 -103.5zM825 206q0 -41 -8 -76.5t-25 -67.5t-49 -51t-76 -19q-84 0 -121.5 61t-37.5 153q0 55 14 101.5t52 80.5t95 34
q58 0 94.5 -33.5t49 -79t12.5 -103.5zM703 698l-455 -726l-64 24l456 728zM375 486q0 -41 -8 -76.5t-25 -67.5t-49 -51t-76 -19q-84 0 -121.5 61t-37.5 153q0 55 14 101.5t52 80.5t95 34q58 0 94.5 -33.5t49 -79t12.5 -103.5zM1101 206q0 78 -15.5 115t-51.5 37
q-38 0 -53 -36.5t-15 -115.5q0 -77 15.5 -113t52.5 -36t52 35.5t15 113.5zM735 206q0 78 -15.5 115t-51.5 37q-38 0 -53 -36.5t-15 -115.5q0 -77 15.5 -113t52.5 -36t52 35.5t15 113.5zM285 486q0 78 -15.5 115t-51.5 37q-38 0 -53 -36.5t-15 -115.5q0 -77 15.5 -113
t52.5 -36t52 35.5t15 113.5z" />
    <glyph glyph-name="guilsinglleft" unicode="&#x2039;" horiz-adv-x="330" 
d="M267 91l-65 -27l-162 198l163 199l64 -28l-112 -170z" />
    <glyph glyph-name="guilsinglright" unicode="&#x203a;" horiz-adv-x="330" 
d="M293 264l-162 -198l-65 28l112 171l-113 170l65 28z" />
    <glyph glyph-name="fraction" unicode="&#x2044;" horiz-adv-x="132" 
d="M326 698l-456 -726l-64 24l456 728z" />
    <glyph glyph-name="Euro" unicode="&#x20ac;" 
d="M590 680l-37 -93q-47 15 -122 15q-64 0 -111.5 -39.5t-63.5 -101.5h187v-81h-205q-2 -20 -2 -30q0 -20 1 -30h206v-81h-192q20 -66 65.5 -105t111.5 -39q65 0 123 24l37 -94q-85 -36 -160 -36q-128 0 -217 62t-117 188h-87v81h78q0 4 -0.5 12t-0.5 12q0 12 2 36h-79v81
h95q36 107 130.5 175.5t199.5 68.5q93 0 158 -25z" />
    <glyph glyph-name="trademark" unicode="&#x2122;" horiz-adv-x="885" 
d="M815 345h-87l-31 186l-10 93q-8 -60 -18 -93l-54 -186h-105l-46 188l-19 91q-3 -53 -10 -91l-36 -188h-77l80 347h105l47 -192l16 -83q2 30 19 84l59 191h105zM317 627h-98v-282h-87v282h-98v65h283v-65z" />
    <glyph glyph-name="partialdiff" unicode="&#x2202;" 
d="M531 358q0 -78 -12 -144q-8 -39 -19 -68q-12 -30 -30 -57q-68 -102 -196 -102q-103 0 -164 65q-29 31 -46 75q-16 42 -16 91q0 52 20 98q21 48 56 76q29 25 66 37q36 12 77 12q38 0 71 -12q32 -12 65 -37v15q0 47 -10 90q-16 71 -58 102q-34 25 -73 25q-40 0 -78 -21
q-13 -7 -42 -31l-68 77q30 24 58 41q55 31 124 31q70 0 125 -30q57 -31 92 -86q58 -89 58 -247zM402 272v19q-6 7 -23 21q-12 10 -23 16q-32 19 -70 19q-46 0 -75 -28q-19 -17 -30 -46q-10 -26 -10 -61q0 -29 8 -56q8 -26 22 -42q11 -13 34 -24q19 -9 42 -9q63 0 96 63
q14 28 21 60q8 37 8 68z" />
    <glyph glyph-name="product" unicode="&#x220f;" horiz-adv-x="759" 
d="M696 -214h-128v880h-376v-880h-129v1000h633v-1000z" />
    <glyph glyph-name="summation" unicode="&#x2211;" horiz-adv-x="654" 
d="M634 -214h-614v105l298 401l-285 390v104h589v-120h-419l267 -373l-285 -387h449v-120z" />
    <glyph glyph-name="minus" unicode="&#x2212;" 
d="M555 203h-530v124h530v-124z" />
    <glyph glyph-name="radical" unicode="&#x221a;" 
d="M591 786l-217 -1000h-117l-148 306l-53 -25l-47 101l165 76l120 -260l164 802h133z" />
    <glyph glyph-name="infinity" unicode="&#x221e;" horiz-adv-x="845" 
d="M797 267q0 -46 -13 -82q-12 -34 -42 -64q-51 -49 -125 -49q-32 0 -62 11q-26 10 -59 33q-18 13 -35 29q-14 12 -38 42q-32 -36 -38 -42q-15 -15 -30 -26q-33 -25 -60 -35q-30 -11 -64 -11q-73 0 -123 45q-60 54 -60 148q0 46 15 84t43 63q24 21 55 33t66 12q69 0 130 -50
q25 -23 30 -28q10 -11 36 -44q40 50 73 77q56 45 122 45q42 0 79 -17q50 -23 75 -67t25 -107zM693 265q0 43 -27 65q-21 18 -51 18q-19 0 -39 -9q-19 -9 -41 -28q-27 -24 -47 -48q36 -43 66 -61q31 -19 64 -19q20 0 33 6q21 9 32 30q10 19 10 46zM358 263q-20 24 -50 49
q-21 17 -43 27q-19 9 -38 9q-31 0 -52 -22q-23 -23 -23 -62q0 -36 21 -58t57 -22q40 0 83 35q28 23 45 44z" />
    <glyph glyph-name="integral" unicode="&#x222b;" 
d="M505 705q0 -13 -5 -26t-12 -19q-20 -17 -41 -17q-22 0 -37 15q-9 9 -12 15q-4 9 -9 27q-5 14 -9 20q-5 6 -11 6q-19 0 -19 -35q0 -16 1 -30l3 -46q1 -13 1 -78l1 -388v-45q0 -76 -3 -126q-1 -30 -7 -63q-4 -22 -14 -44q-20 -42 -55 -62q-38 -22 -82 -22q-27 0 -53 9
q-25 9 -41 25q-12 12 -18 25q-7 16 -7 26q0 13 4 22q5 12 11 17q7 7 21 12q13 5 24 5q14 0 25 -7q14 -8 19 -18q5 -9 12 -36q3 -11 7 -17q5 -6 11 -6q10 0 14 9q5 10 5 26q0 19 -3 56q-3 41 -3 89v455v27l1 45q2 72 9 108q11 53 45 84q44 41 113 41q25 0 46 -7q26 -9 39 -19
q14 -10 21 -24q8 -14 8 -29z" />
    <glyph glyph-name="approxequal" unicode="&#x2248;" 
d="M560 468q-7 -83 -42 -127q-21 -25 -53 -42q-31 -16 -65 -16q-18 0 -53 9q-32 8 -112 36q-45 14 -53 16q-15 3 -27 3q-23 0 -39 -17q-17 -18 -21 -46h-81q6 79 42 127q19 27 49 40q31 14 68 14q22 0 41 -4q23 -5 56 -15q59 -18 104 -31q25 -7 45 -7q27 0 43 19
q13 14 16 41h82zM559 246q-3 -39 -16 -77q-12 -34 -30 -58q-20 -25 -48 -38q-27 -13 -61 -13q-19 0 -39 5q-12 3 -42 11q-31 9 -43 13l-56 19q-23 7 -44 13q-15 4 -26 4q-14 0 -26 -6q-10 -5 -20 -18q-11 -16 -14 -38h-82q3 39 14 72q10 29 31 57q20 26 49 41q28 15 62 15
q13 0 33 -5q29 -7 77 -22l48 -15q48 -15 57 -17q12 -3 36 -3q14 0 23 4q8 4 19 16q8 10 10 16q3 9 6 24h82z" />
    <glyph glyph-name="notequal" unicode="&#x2260;" 
d="M555 88h-285l-79 -156l-108 54l51 102h-109v124h171l53 106h-224v124h286l79 156l108 -55l-51 -101h108v-124h-170l-53 -106h223v-124z" />
    <glyph glyph-name="lessequal" unicode="&#x2264;" 
d="M554 112l-530 168v124l530 167v-129l-359 -100l359 -102v-128zM554 -42h-530v125h530v-125z" />
    <glyph glyph-name="greaterequal" unicode="&#x2265;" 
d="M556 280l-530 -168v128l359 102l-359 100v129l530 -167v-124zM556 -42h-530v125h530v-125z" />
    <glyph glyph-name="lozenge" unicode="&#x25ca;" 
d="M530 356l-183 -391h-115l-182 391l183 391h114zM404 356l-114 267l-113 -267l113 -268z" />
    <glyph glyph-name="fi" unicode="&#xfb01;" horiz-adv-x="624" 
d="M546 511l-4 -511h-136l4 416h-170l-3 -416h-135l3 416h-78v95h79v23q0 102 62.5 167.5t186.5 66.5q32 0 59 -1.5t38 -2.5l12 -2l-11 -91q-38 4 -77 4q-65 0 -100 -38t-35 -108v-18h305z" />
    <glyph glyph-name="fl" unicode="&#xfb02;" horiz-adv-x="619" 
d="M543 759l-6 -759h-136l4 417h-170l-3 -417h-135l3 416h-78v95h79v24q0 19 2 38.5t17 57.5t41.5 65.5t82 49.5t130.5 22q97 0 169 -9zM406 672q-24 3 -34 3q-71 0 -103.5 -43t-32.5 -96v-25h169z" />
    </font>
</defs>
</svg>
